{
  "source": "C:\\Users\\Peter\\Desktop\\stuff\\MIUN\\quantitative_research\\video_compression\\videos\\BVI-HD\\BVI-HD_CDVL_videos\\ORIG\\PaintingTilting_1920x1080_60fps.mp4",
  "output": "C:\\Users\\Peter\\Desktop\\stuff\\MIUN\\quantitative_research\\video_compression\\compressed_videos\\BVI-HD\\hevc\\1\\PaintingTilting_1920x1080_60fps_hevc.mp4",
  "codec": "hevc",
  "ok": "Input #0, mov,mp4,m4a,3gp,3g2,mj2, from 'C:\\Users\\Peter\\Desktop\\stuff\\MIUN\\quantitative_research\\video_compression\\videos\\BVI-HD\\BVI-HD_CDVL_videos\\ORIG\\PaintingTilting_1920x1080_60fps.mp4':\n  Metadata:\n    major_brand     : isom\n    minor_version   : 512\n    compatible_brands: isomiso2avc1mp41\n    encoder         : Lavf54.28.101\n  Duration: 00:00:05.00, start: 0.000000, bitrate: 667707 kb/s\n  Stream #0:0[0x1](und): Video: h264 (High 4:4:4 Predictive) (avc1 / 0x31637661), yuv420p(progressive), 1920x1080, 667702 kb/s, 60 fps, 60 tbr, 60 tbn (default)\n    Metadata:\n      handler_name    : VideoHandler\n      vendor_id       : [0][0][0][0]\n[out#0/mp4 @ 0000019a7c74ac00] Codec AVOption b:a (set bitrate (in bits/s)) has not been used for any stream. The most likely reason is either wrong type (e.g. a video option with no video streams) or that it is a private option of some decoder which was not actually used for any stream.\nStream mapping:\n  Stream #0:0 -> #0:0 (h264 (native) -> hevc (libx265))\nPress [q] to stop, [?] for help\n[libx265 @ 0000019a7c750f00] Unknown option: \"aq-mode.\nx265 [info]: HEVC encoder version 4.1+190-8f11c33ac\nx265 [info]: build info [Windows][GCC 15.1.0][64 bit] 10bit\nx265 [info]: using cpu capabilities: MMX2 SSE2Fast LZCNT SSSE3 SSE4.2 AVX FMA3 BMI2 AVX2\nx265 [info]: Main 10 profile, Level-4.1 (Main tier)\nx265 [info]: Thread pool created using 12 threads\nx265 [info]: Slices                              : 1\nx265 [info]: frame threads / pool features       : 3 / wpp(17 rows)\nx265 [info]: Coding QT: max CU size, min CU size : 64 / 8\nx265 [info]: Residual QT: max TU size, max depth : 32 / 1 inter / 1 intra\nx265 [info]: ME / range / subpel / merge         : star / 57 / 3 / 3\nx265 [info]: Keyframe min / max / scenecut / bias  : 25 / 250 / 40 / 5.00 \nx265 [info]: Lookahead / bframes / badapt        : 25 / 4 / 2\nx265 [info]: b-pyramid / weightp / weightb       : 1 / 1 / 0\nx265 [info]: References / ref-limit  cu / depth  : 4 / on / on\nx265 [info]: AQ: mode / str / qg-size / cu-tree  : 2 / 1.0 / 32 / 1\nx265 [info]: Rate Control / qCompress            : ABR-1000 kbps / 0.60\nx265 [info]: VBV/HRD buffer / max-rate / init    : 1000 / 1000 / 0.750\nx265 [info]: tools: rect limit-modes rd=4 psy-rd=2.00 rdoq=2 psy-rdoq=1.00\nx265 [info]: tools: rskip mode=1 signhide tmvp strong-intra-smoothing lslices=4\nx265 [info]: tools: deblock sao dhdr10-info\nOutput #0, mp4, to 'C:\\Users\\Peter\\Desktop\\stuff\\MIUN\\quantitative_research\\video_compression\\compressed_videos\\BVI-HD\\hevc\\1\\PaintingTilting_1920x1080_60fps_hevc.mp4':\n  Metadata:\n    major_brand     : isom\n    minor_version   : 512\n    compatible_brands: isomiso2avc1mp41\n    encoder         : Lavf62.3.100\n  Stream #0:0(und): Video: hevc (hev1 / 0x31766568), yuv420p10le(tv, progressive), 1920x1080, q=2-31, 1000 kb/s, 60 fps, 15360 tbn (default)\n    Metadata:\n      encoder         : Lavc62.11.100 libx265\n      handler_name    : VideoHandler\n      vendor_id       : [0][0][0][0]\n    Side data:\n      cpb: bitrate max/min/avg: 1000000/0/1000000 buffer size: 1000000 vbv_delay: N/A\nframe=    0 fps=0.0 q=0.0 size=       0KiB time=N/A bitrate=N/A speed=N/A elapsed=0:00:00.51    \nframe=    0 fps=0.0 q=0.0 size=       0KiB time=N/A bitrate=N/A speed=N/A elapsed=0:00:01.11    \nframe=    0 fps=0.0 q=0.0 size=       0KiB time=N/A bitrate=N/A speed=N/A elapsed=0:00:01.65    \nframe=    0 fps=0.0 q=0.0 size=       0KiB time=N/A bitrate=N/A speed=N/A elapsed=0:00:02.18    \nframe=    0 fps=0.0 q=0.0 size=       0KiB time=N/A bitrate=N/A speed=N/A elapsed=0:00:02.71    \nframe=    0 fps=0.0 q=0.0 size=       0KiB time=N/A bitrate=N/A speed=N/A elapsed=0:00:03.23    \nframe=    0 fps=0.0 q=0.0 size=       0KiB time=N/A bitrate=N/A speed=N/A elapsed=0:00:03.75    \nframe=    0 fps=0.0 q=0.0 size=       0KiB time=N/A bitrate=N/A speed=N/A elapsed=0:00:04.26    \nframe=    0 fps=0.0 q=0.0 size=       0KiB time=N/A bitrate=N/A speed=N/A elapsed=0:00:04.80    \nframe=    0 fps=0.0 q=0.0 size=       0KiB time=N/A bitrate=N/A speed=N/A elapsed=0:00:05.32    \nframe=    0 fps=0.0 q=0.0 size=       0KiB time=N/A bitrate=N/A speed=N/A elapsed=0:00:05.85    \nframe=    1 fps=0.2 q=50.8 size=       0KiB time=-00:00:00.01 bitrate=N/A speed=N/A elapsed=0:00:06.38    \nframe=    2 fps=0.3 q=51.0 size=       0KiB time=00:00:00.00 bitrate=N/A speed=   0x elapsed=0:00:06.88    \nframe=    4 fps=0.5 q=51.0 size=       0KiB time=00:00:00.03 bitrate=  10.6kbits/s speed=0.00449x elapsed=0:00:07.41    \nframe=    5 fps=0.6 q=51.0 size=       0KiB time=00:00:00.05 bitrate=   7.0kbits/s speed=0.00629x elapsed=0:00:07.94    \nframe=    7 fps=0.8 q=51.0 size=       0KiB time=00:00:00.08 bitrate=   4.2kbits/s speed=0.00986x elapsed=0:00:08.45    \nframe=    7 fps=0.8 q=51.0 size=       0KiB time=00:00:00.08 bitrate=   4.2kbits/s speed=0.00928x elapsed=0:00:08.98    \nframe=    8 fps=0.8 q=51.0 size=       0KiB time=00:00:00.10 bitrate=   3.5kbits/s speed=0.0105x elapsed=0:00:09.56    \nframe=    8 fps=0.8 q=51.0 size=       0KiB time=00:00:00.10 bitrate=   3.5kbits/s speed=0.00988x elapsed=0:00:10.11    \nframe=    9 fps=0.8 q=51.0 size=       0KiB time=00:00:00.11 bitrate=   3.0kbits/s speed=0.0109x elapsed=0:00:10.65    \nframe=    9 fps=0.8 q=51.0 size=       0KiB time=00:00:00.11 bitrate=   3.0kbits/s speed=0.0104x elapsed=0:00:11.17    \nframe=   10 fps=0.9 q=49.9 size=       0KiB time=00:00:00.13 bitrate=   2.6kbits/s speed=0.0114x elapsed=0:00:11.68    \nframe=   11 fps=0.9 q=51.0 size=       0KiB time=00:00:00.15 bitrate=   2.3kbits/s speed=0.0123x elapsed=0:00:12.21    \nframe=   11 fps=0.9 q=51.0 size=       0KiB time=00:00:00.15 bitrate=   2.3kbits/s speed=0.0118x elapsed=0:00:12.73    \nframe=   11 fps=0.8 q=51.0 size=       0KiB time=00:00:00.15 bitrate=   2.3kbits/s speed=0.0113x elapsed=0:00:13.29    \nframe=   11 fps=0.8 q=51.0 size=       0KiB time=00:00:00.15 bitrate=   2.3kbits/s speed=0.0108x elapsed=0:00:13.82    \nframe=   11 fps=0.8 q=51.0 size=       0KiB time=00:00:00.15 bitrate=   2.3kbits/s speed=0.0105x elapsed=0:00:14.34    \nframe=   11 fps=0.7 q=51.0 size=       0KiB time=00:00:00.15 bitrate=   2.3kbits/s speed=0.0101x elapsed=0:00:14.85    \nframe=   12 fps=0.8 q=51.0 size=       0KiB time=00:00:00.16 bitrate=   2.1kbits/s speed=0.0108x elapsed=0:00:15.39    \nframe=   12 fps=0.8 q=51.0 size=       0KiB time=00:00:00.16 bitrate=   2.1kbits/s speed=0.0105x elapsed=0:00:15.93    \nframe=   13 fps=0.8 q=51.0 size=       0KiB time=00:00:00.18 bitrate=   1.9kbits/s speed=0.0111x elapsed=0:00:16.46    \nframe=   13 fps=0.8 q=51.0 size=       0KiB time=00:00:00.18 bitrate=   1.9kbits/s speed=0.0108x elapsed=0:00:17.00    \nframe=   14 fps=0.8 q=49.2 size=       0KiB time=00:00:00.20 bitrate=   1.8kbits/s speed=0.0114x elapsed=0:00:17.54    \nframe=   15 fps=0.8 q=51.0 size=       0KiB time=00:00:00.21 bitrate=   1.6kbits/s speed=0.012x elapsed=0:00:18.06    \nframe=   15 fps=0.8 q=51.0 size=       0KiB time=00:00:00.21 bitrate=   1.6kbits/s speed=0.0117x elapsed=0:00:18.59    \nframe=   16 fps=0.8 q=51.0 size=       0KiB time=00:00:00.23 bitrate=   1.5kbits/s speed=0.0122x elapsed=0:00:19.12    \nframe=   17 fps=0.9 q=51.0 size=       0KiB time=00:00:00.25 bitrate=   1.4kbits/s speed=0.0127x elapsed=0:00:19.66    \nframe=   17 fps=0.8 q=51.0 size=       0KiB time=00:00:00.25 bitrate=   1.4kbits/s speed=0.0124x elapsed=0:00:20.21    \nframe=   18 fps=0.9 q=47.6 size=       0KiB time=00:00:00.26 bitrate=   1.3kbits/s speed=0.0128x elapsed=0:00:20.77    \nframe=   19 fps=0.9 q=48.4 size=       0KiB time=00:00:00.28 bitrate=   1.2kbits/s speed=0.0133x elapsed=0:00:21.30    \nframe=   19 fps=0.9 q=48.4 size=       0KiB time=00:00:00.28 bitrate=   1.2kbits/s speed=0.013x elapsed=0:00:21.83    \nframe=   20 fps=0.9 q=51.0 size=       0KiB time=00:00:00.30 bitrate=   1.2kbits/s speed=0.0134x elapsed=0:00:22.36    \nframe=   20 fps=0.9 q=51.0 size=       0KiB time=00:00:00.30 bitrate=   1.2kbits/s speed=0.0131x elapsed=0:00:22.88    \nframe=   21 fps=0.9 q=51.0 size=       0KiB time=00:00:00.31 bitrate=   1.1kbits/s speed=0.0135x elapsed=0:00:23.38    \nframe=   22 fps=0.9 q=51.0 size=       0KiB time=00:00:00.33 bitrate=   1.1kbits/s speed=0.0139x elapsed=0:00:23.91    \nframe=   22 fps=0.9 q=51.0 size=       0KiB time=00:00:00.33 bitrate=   1.1kbits/s speed=0.0136x elapsed=0:00:24.46    \nframe=   23 fps=0.9 q=48.9 size=       0KiB time=00:00:00.35 bitrate=   1.0kbits/s speed=0.014x elapsed=0:00:24.96    \nframe=   24 fps=0.9 q=51.0 size=       0KiB time=00:00:00.36 bitrate=   1.0kbits/s speed=0.0144x elapsed=0:00:25.49    \nframe=   25 fps=1.0 q=51.0 size=       0KiB time=00:00:00.38 bitrate=   0.9kbits/s speed=0.0147x elapsed=0:00:26.03    \nframe=   26 fps=1.0 q=51.0 size=       0KiB time=00:00:00.40 bitrate=   0.9kbits/s speed=0.0151x elapsed=0:00:26.57    \nframe=   26 fps=1.0 q=51.0 size=       0KiB time=00:00:00.40 bitrate=   0.9kbits/s speed=0.0147x elapsed=0:00:27.12    \nframe=   27 fps=1.0 q=50.6 size=       0KiB time=00:00:00.41 bitrate=   0.8kbits/s speed=0.0151x elapsed=0:00:27.67    \nframe=   27 fps=1.0 q=50.6 size=       0KiB time=00:00:00.41 bitrate=   0.8kbits/s speed=0.0148x elapsed=0:00:28.19    \nframe=   28 fps=1.0 q=48.0 size=       0KiB time=00:00:00.43 bitrate=   0.8kbits/s speed=0.0151x elapsed=0:00:28.73    \nframe=   29 fps=1.0 q=49.0 size=       0KiB time=00:00:00.45 bitrate=   0.8kbits/s speed=0.0154x elapsed=0:00:29.25    \nframe=   29 fps=1.0 q=49.0 size=       0KiB time=00:00:00.45 bitrate=   0.8kbits/s speed=0.0151x elapsed=0:00:29.77    \nframe=   30 fps=1.0 q=47.1 size=       0KiB time=00:00:00.46 bitrate=   0.8kbits/s speed=0.0154x elapsed=0:00:30.31    \nframe=   30 fps=1.0 q=47.1 size=       0KiB time=00:00:00.46 bitrate=   0.8kbits/s speed=0.0151x elapsed=0:00:30.86    \nframe=   31 fps=1.0 q=48.0 size=       0KiB time=00:00:00.48 bitrate=   0.7kbits/s speed=0.0154x elapsed=0:00:31.39    \nframe=   31 fps=1.0 q=48.0 size=       0KiB time=00:00:00.48 bitrate=   0.7kbits/s speed=0.0151x elapsed=0:00:31.92    \nframe=   32 fps=1.0 q=50.4 size=       0KiB time=00:00:00.50 bitrate=   0.7kbits/s speed=0.0154x elapsed=0:00:32.43    \nframe=   32 fps=1.0 q=50.4 size=       0KiB time=00:00:00.50 bitrate=   0.7kbits/s speed=0.0152x elapsed=0:00:32.95    \nframe=   33 fps=1.0 q=47.5 size=       0KiB time=00:00:00.51 bitrate=   0.7kbits/s speed=0.0154x elapsed=0:00:33.47    \nframe=   33 fps=1.0 q=47.5 size=       0KiB time=00:00:00.51 bitrate=   0.7kbits/s speed=0.0152x elapsed=0:00:34.00    \nframe=   34 fps=1.0 q=48.0 size=       0KiB time=00:00:00.53 bitrate=   0.7kbits/s speed=0.0154x elapsed=0:00:34.53    \nframe=   34 fps=1.0 q=48.0 size=       0KiB time=00:00:00.53 bitrate=   0.7kbits/s speed=0.0152x elapsed=0:00:35.04    \nframe=   35 fps=1.0 q=46.3 size=       0KiB time=00:00:00.55 bitrate=   0.6kbits/s speed=0.0155x elapsed=0:00:35.56    \nframe=   35 fps=1.0 q=46.3 size=       0KiB time=00:00:00.55 bitrate=   0.6kbits/s speed=0.0152x elapsed=0:00:36.09    \nframe=   36 fps=1.0 q=46.7 size=       0KiB time=00:00:00.56 bitrate=   0.6kbits/s speed=0.0155x elapsed=0:00:36.60    \nframe=   37 fps=1.0 q=47.6 size=       0KiB time=00:00:00.58 bitrate=   0.6kbits/s speed=0.0157x elapsed=0:00:37.12    \nframe=   38 fps=1.0 q=46.5 size=       0KiB time=00:00:00.60 bitrate=   0.6kbits/s speed=0.0159x elapsed=0:00:37.64    \nframe=   39 fps=1.0 q=46.3 size=       0KiB time=00:00:00.61 bitrate=   0.6kbits/s speed=0.0162x elapsed=0:00:38.16    \nframe=   40 fps=1.0 q=50.0 size=       0KiB time=00:00:00.63 bitrate=   0.6kbits/s speed=0.0164x elapsed=0:00:38.71    \nframe=   41 fps=1.0 q=45.6 size=       0KiB time=00:00:00.65 bitrate=   0.5kbits/s speed=0.0166x elapsed=0:00:39.23    \nframe=   42 fps=1.1 q=47.0 size=       0KiB time=00:00:00.66 bitrate=   0.5kbits/s speed=0.0168x elapsed=0:00:39.75    \nframe=   43 fps=1.1 q=46.3 size=       0KiB time=00:00:00.68 bitrate=   0.5kbits/s speed=0.017x elapsed=0:00:40.28    \nframe=   43 fps=1.1 q=46.3 size=       0KiB time=00:00:00.68 bitrate=   0.5kbits/s speed=0.0167x elapsed=0:00:40.81    \nframe=   43 fps=1.0 q=46.3 size=       0KiB time=00:00:00.68 bitrate=   0.5kbits/s speed=0.0165x elapsed=0:00:41.32    \nframe=   44 fps=1.1 q=46.9 size=       0KiB time=00:00:00.70 bitrate=   0.5kbits/s speed=0.0167x elapsed=0:00:41.84    \nframe=   46 fps=1.1 q=45.7 size=       0KiB time=00:00:00.73 bitrate=   0.5kbits/s speed=0.0173x elapsed=0:00:42.37    \nframe=   46 fps=1.1 q=45.7 size=       0KiB time=00:00:00.73 bitrate=   0.5kbits/s speed=0.0171x elapsed=0:00:42.93    \nframe=   46 fps=1.1 q=45.7 size=       0KiB time=00:00:00.73 bitrate=   0.5kbits/s speed=0.0169x elapsed=0:00:43.51    \nframe=   46 fps=1.0 q=45.7 size=       0KiB time=00:00:00.73 bitrate=   0.5kbits/s speed=0.0166x elapsed=0:00:44.06    \nframe=   46 fps=1.0 q=45.7 size=       0KiB time=00:00:00.73 bitrate=   0.5kbits/s speed=0.0164x elapsed=0:00:44.61    \nframe=   47 fps=1.0 q=46.1 size=       0KiB time=00:00:00.75 bitrate=   0.5kbits/s speed=0.0166x elapsed=0:00:45.12    \nframe=   47 fps=1.0 q=46.1 size=       0KiB time=00:00:00.75 bitrate=   0.5kbits/s speed=0.0164x elapsed=0:00:45.65    \nframe=   48 fps=1.0 q=46.0 size=       0KiB time=00:00:00.76 bitrate=   0.5kbits/s speed=0.0166x elapsed=0:00:46.19    \nframe=   48 fps=1.0 q=46.0 size=       0KiB time=00:00:00.76 bitrate=   0.5kbits/s speed=0.0164x elapsed=0:00:46.71    \nframe=   48 fps=1.0 q=46.0 size=       0KiB time=00:00:00.76 bitrate=   0.5kbits/s speed=0.0162x elapsed=0:00:47.27    \nframe=   48 fps=1.0 q=46.0 size=       0KiB time=00:00:00.76 bitrate=   0.5kbits/s speed=0.016x elapsed=0:00:47.81    \nframe=   49 fps=1.0 q=46.0 size=       0KiB time=00:00:00.78 bitrate=   0.4kbits/s speed=0.0162x elapsed=0:00:48.36    \nframe=   49 fps=1.0 q=46.0 size=       0KiB time=00:00:00.78 bitrate=   0.4kbits/s speed=0.016x elapsed=0:00:48.88    \nframe=   49 fps=1.0 q=46.0 size=       0KiB time=00:00:00.78 bitrate=   0.4kbits/s speed=0.0159x elapsed=0:00:49.41    \nframe=   50 fps=1.0 q=50.0 size=       0KiB time=00:00:00.80 bitrate=   0.4kbits/s speed=0.016x elapsed=0:00:49.97    \nframe=   50 fps=1.0 q=50.0 size=       0KiB time=00:00:00.80 bitrate=   0.4kbits/s speed=0.0158x elapsed=0:00:50.52    \nframe=   50 fps=1.0 q=50.0 size=       0KiB time=00:00:00.80 bitrate=   0.4kbits/s speed=0.0157x elapsed=0:00:51.04    \nframe=   51 fps=1.0 q=45.8 size=       0KiB time=00:00:00.81 bitrate=   0.4kbits/s speed=0.0158x elapsed=0:00:51.56    \nframe=   51 fps=1.0 q=45.8 size=       0KiB time=00:00:00.81 bitrate=   0.4kbits/s speed=0.0157x elapsed=0:00:52.08    \nframe=   52 fps=1.0 q=46.0 size=       0KiB time=00:00:00.83 bitrate=   0.4kbits/s speed=0.0158x elapsed=0:00:52.64    \nframe=   52 fps=1.0 q=46.0 size=       0KiB time=00:00:00.83 bitrate=   0.4kbits/s speed=0.0157x elapsed=0:00:53.16    \nframe=   52 fps=1.0 q=46.0 size=       0KiB time=00:00:00.83 bitrate=   0.4kbits/s speed=0.0155x elapsed=0:00:53.68    \nframe=   52 fps=1.0 q=46.0 size=       0KiB time=00:00:00.83 bitrate=   0.4kbits/s speed=0.0154x elapsed=0:00:54.20    \nframe=   53 fps=1.0 q=45.3 size=       0KiB time=00:00:00.85 bitrate=   0.4kbits/s speed=0.0155x elapsed=0:00:54.73    \nframe=   53 fps=1.0 q=45.3 size=       0KiB time=00:00:00.85 bitrate=   0.4kbits/s speed=0.0154x elapsed=0:00:55.27    \nframe=   53 fps=0.9 q=45.3 size=       0KiB time=00:00:00.85 bitrate=   0.4kbits/s speed=0.0152x elapsed=0:00:55.79    \nframe=   53 fps=0.9 q=45.3 size=       0KiB time=00:00:00.85 bitrate=   0.4kbits/s speed=0.0151x elapsed=0:00:56.32    \nframe=   54 fps=0.9 q=47.8 size=       0KiB time=00:00:00.86 bitrate=   0.4kbits/s speed=0.0152x elapsed=0:00:56.84    \nframe=   54 fps=0.9 q=47.8 size=       0KiB time=00:00:00.86 bitrate=   0.4kbits/s speed=0.0151x elapsed=0:00:57.38    \nframe=   54 fps=0.9 q=47.8 size=       0KiB time=00:00:00.86 bitrate=   0.4kbits/s speed=0.015x elapsed=0:00:57.94    \nframe=   54 fps=0.9 q=47.8 size=       0KiB time=00:00:00.86 bitrate=   0.4kbits/s speed=0.0148x elapsed=0:00:58.48    \nframe=   56 fps=0.9 q=45.1 size=       0KiB time=00:00:00.90 bitrate=   0.4kbits/s speed=0.0152x elapsed=0:00:59.02    \nframe=   56 fps=0.9 q=45.1 size=       0KiB time=00:00:00.90 bitrate=   0.4kbits/s speed=0.0151x elapsed=0:00:59.54    \nframe=   57 fps=0.9 q=44.1 size=       0KiB time=00:00:00.91 bitrate=   0.4kbits/s speed=0.0153x elapsed=0:01:00.07    \nframe=   57 fps=0.9 q=44.1 size=       0KiB time=00:00:00.91 bitrate=   0.4kbits/s speed=0.0151x elapsed=0:01:00.60    \nframe=   58 fps=0.9 q=45.1 size=       0KiB time=00:00:00.93 bitrate=   0.4kbits/s speed=0.0153x elapsed=0:01:01.14    \nframe=   58 fps=0.9 q=45.1 size=       0KiB time=00:00:00.93 bitrate=   0.4kbits/s speed=0.0151x elapsed=0:01:01.67    \nframe=   59 fps=0.9 q=47.0 size=       0KiB time=00:00:00.95 bitrate=   0.4kbits/s speed=0.0153x elapsed=0:01:02.21    \nframe=   61 fps=1.0 q=45.0 size=       0KiB time=00:00:00.98 bitrate=   0.4kbits/s speed=0.0157x elapsed=0:01:02.73    \nframe=   62 fps=1.0 q=43.8 size=       0KiB time=00:00:01.00 bitrate=   0.4kbits/s speed=0.0158x elapsed=0:01:03.24    \nframe=   63 fps=1.0 q=46.1 size=       0KiB time=00:00:01.00 bitrate=   0.4kbits/s speed=0.0157x elapsed=0:01:03.76    \nframe=   63 fps=1.0 q=46.1 size=       0KiB time=00:00:01.01 bitrate=   0.3kbits/s speed=0.0158x elapsed=0:01:04.32    \nframe=   63 fps=1.0 q=46.1 size=       0KiB time=00:00:01.01 bitrate=   0.3kbits/s speed=0.0157x elapsed=0:01:04.94    \nframe=   63 fps=1.0 q=46.1 size=       0KiB time=00:00:01.01 bitrate=   0.3kbits/s speed=0.0155x elapsed=0:01:05.53    \nframe=   63 fps=1.0 q=46.1 size=       0KiB time=00:00:01.01 bitrate=   0.3kbits/s speed=0.0154x elapsed=0:01:06.08    \nframe=   64 fps=1.0 q=47.3 size=       0KiB time=00:00:01.03 bitrate=   0.3kbits/s speed=0.0155x elapsed=0:01:06.66    \nframe=   64 fps=1.0 q=47.3 size=       0KiB time=00:00:01.03 bitrate=   0.3kbits/s speed=0.0154x elapsed=0:01:07.24    \nframe=   64 fps=0.9 q=47.3 size=       0KiB time=00:00:01.03 bitrate=   0.3kbits/s speed=0.0152x elapsed=0:01:07.83    \nframe=   64 fps=0.9 q=47.3 size=       0KiB time=00:00:01.03 bitrate=   0.3kbits/s speed=0.0151x elapsed=0:01:08.48    \nframe=   65 fps=0.9 q=45.2 size=       0KiB time=00:00:01.05 bitrate=   0.3kbits/s speed=0.0152x elapsed=0:01:09.10    \nframe=   66 fps=0.9 q=46.0 size=       0KiB time=00:00:01.06 bitrate=   0.3kbits/s speed=0.0153x elapsed=0:01:09.62    \nframe=   67 fps=1.0 q=45.0 size=       0KiB time=00:00:01.08 bitrate=   0.3kbits/s speed=0.0154x elapsed=0:01:10.14    \nframe=   67 fps=0.9 q=45.0 size=       0KiB time=00:00:01.08 bitrate=   0.3kbits/s speed=0.0153x elapsed=0:01:10.67    \nframe=   69 fps=1.0 q=47.8 size=       0KiB time=00:00:01.11 bitrate=   0.3kbits/s speed=0.0157x elapsed=0:01:11.25    \nframe=   70 fps=1.0 q=44.5 size=       0KiB time=00:00:01.13 bitrate=   0.3kbits/s speed=0.0158x elapsed=0:01:11.78    \nframe=   71 fps=1.0 q=44.0 size=       0KiB time=00:00:01.15 bitrate=   0.3kbits/s speed=0.0159x elapsed=0:01:12.31    \nframe=   71 fps=1.0 q=44.0 size=       0KiB time=00:00:01.15 bitrate=   0.3kbits/s speed=0.0158x elapsed=0:01:12.83    \nframe=   71 fps=1.0 q=44.0 size=       0KiB time=00:00:01.15 bitrate=   0.3kbits/s speed=0.0157x elapsed=0:01:13.35    \nframe=   72 fps=1.0 q=43.5 size=       0KiB time=00:00:01.16 bitrate=   0.3kbits/s speed=0.0158x elapsed=0:01:13.89    \nframe=   73 fps=1.0 q=43.1 size=       0KiB time=00:00:01.18 bitrate=   0.3kbits/s speed=0.0159x elapsed=0:01:14.42    \nframe=   75 fps=1.0 q=43.7 size=       0KiB time=00:00:01.21 bitrate=   0.3kbits/s speed=0.0162x elapsed=0:01:14.96    \nframe=   75 fps=1.0 q=43.7 size=       0KiB time=00:00:01.21 bitrate=   0.3kbits/s speed=0.0161x elapsed=0:01:15.49    \nframe=   76 fps=1.0 q=45.0 size=       0KiB time=00:00:01.23 bitrate=   0.3kbits/s speed=0.0162x elapsed=0:01:16.01    \nframe=   76 fps=1.0 q=45.0 size=       0KiB time=00:00:01.23 bitrate=   0.3kbits/s speed=0.0161x elapsed=0:01:16.53    \nframe=   76 fps=1.0 q=45.0 size=       0KiB time=00:00:01.23 bitrate=   0.3kbits/s speed=0.016x elapsed=0:01:17.07    \nframe=   76 fps=1.0 q=45.0 size=       0KiB time=00:00:01.23 bitrate=   0.3kbits/s speed=0.0159x elapsed=0:01:17.60    \nframe=   77 fps=1.0 q=46.0 size=       0KiB time=00:00:01.25 bitrate=   0.3kbits/s speed=0.016x elapsed=0:01:18.12    \nframe=   77 fps=1.0 q=46.0 size=       0KiB time=00:00:01.25 bitrate=   0.3kbits/s speed=0.0159x elapsed=0:01:18.66    \nframe=   78 fps=1.0 q=46.0 size=       0KiB time=00:00:01.26 bitrate=   0.3kbits/s speed=0.016x elapsed=0:01:19.16    \nframe=   78 fps=1.0 q=46.0 size=       0KiB time=00:00:01.26 bitrate=   0.3kbits/s speed=0.0159x elapsed=0:01:19.68    \nframe=   79 fps=1.0 q=42.6 size=       0KiB time=00:00:01.28 bitrate=   0.3kbits/s speed=0.016x elapsed=0:01:20.21    \nframe=   79 fps=1.0 q=42.6 size=       0KiB time=00:00:01.28 bitrate=   0.3kbits/s speed=0.0159x elapsed=0:01:20.74    \nframe=   79 fps=1.0 q=42.6 size=       0KiB time=00:00:01.28 bitrate=   0.3kbits/s speed=0.0158x elapsed=0:01:21.27    \nframe=   79 fps=1.0 q=42.6 size=       0KiB time=00:00:01.28 bitrate=   0.3kbits/s speed=0.0157x elapsed=0:01:21.79    \nframe=   79 fps=1.0 q=42.6 size=       0KiB time=00:00:01.28 bitrate=   0.3kbits/s speed=0.0156x elapsed=0:01:22.29    \nframe=   79 fps=1.0 q=42.6 size=       0KiB time=00:00:01.28 bitrate=   0.3kbits/s speed=0.0155x elapsed=0:01:22.83    \nframe=   79 fps=0.9 q=42.6 size=       0KiB time=00:00:01.28 bitrate=   0.3kbits/s speed=0.0154x elapsed=0:01:23.37    \nframe=   80 fps=1.0 q=45.9 size=       0KiB time=00:00:01.30 bitrate=   0.3kbits/s speed=0.0155x elapsed=0:01:23.89    \nframe=   81 fps=1.0 q=46.0 size=       0KiB time=00:00:01.31 bitrate=   0.3kbits/s speed=0.0156x elapsed=0:01:24.40    \nframe=   82 fps=1.0 q=42.4 size=       0KiB time=00:00:01.33 bitrate=   0.3kbits/s speed=0.0157x elapsed=0:01:24.93    \nframe=   83 fps=1.0 q=46.0 size=       0KiB time=00:00:01.35 bitrate=   0.3kbits/s speed=0.0158x elapsed=0:01:25.45    \nframe=   83 fps=1.0 q=46.0 size=       0KiB time=00:00:01.35 bitrate=   0.3kbits/s speed=0.0157x elapsed=0:01:25.97    \nframe=   83 fps=1.0 q=46.0 size=       0KiB time=00:00:01.35 bitrate=   0.3kbits/s speed=0.0156x elapsed=0:01:26.53    \nframe=   84 fps=1.0 q=46.0 size=       0KiB time=00:00:01.36 bitrate=   0.3kbits/s speed=0.0157x elapsed=0:01:27.05    \nframe=   84 fps=1.0 q=46.0 size=       0KiB time=00:00:01.36 bitrate=   0.3kbits/s speed=0.0156x elapsed=0:01:27.59    \nframe=   84 fps=1.0 q=46.0 size=       0KiB time=00:00:01.36 bitrate=   0.3kbits/s speed=0.0155x elapsed=0:01:28.11    \nframe=   85 fps=1.0 q=45.0 size=       0KiB time=00:00:01.38 bitrate=   0.3kbits/s speed=0.0156x elapsed=0:01:28.63    \nframe=   86 fps=1.0 q=42.1 size=       0KiB time=00:00:01.40 bitrate=   0.3kbits/s speed=0.0157x elapsed=0:01:29.16    \nframe=   86 fps=1.0 q=42.1 size=       0KiB time=00:00:01.40 bitrate=   0.3kbits/s speed=0.0156x elapsed=0:01:29.70    \nframe=   87 fps=1.0 q=45.0 size=       0KiB time=00:00:01.41 bitrate=   0.2kbits/s speed=0.0157x elapsed=0:01:30.25    \nframe=   87 fps=1.0 q=45.0 size=       0KiB time=00:00:01.41 bitrate=   0.2kbits/s speed=0.0156x elapsed=0:01:30.78    \nframe=   88 fps=1.0 q=46.0 size=       0KiB time=00:00:01.43 bitrate=   0.2kbits/s speed=0.0157x elapsed=0:01:31.33    \nframe=   89 fps=1.0 q=41.4 size=       0KiB time=00:00:01.45 bitrate=   0.2kbits/s speed=0.0158x elapsed=0:01:31.85    \nframe=   89 fps=1.0 q=41.4 size=       0KiB time=00:00:01.45 bitrate=   0.2kbits/s speed=0.0157x elapsed=0:01:32.37    \nframe=   90 fps=1.0 q=45.0 size=       0KiB time=00:00:01.46 bitrate=   0.2kbits/s speed=0.0158x elapsed=0:01:32.89    \nframe=   91 fps=1.0 q=46.0 size=       0KiB time=00:00:01.48 bitrate=   0.2kbits/s speed=0.0159x elapsed=0:01:33.43    \nframe=   91 fps=1.0 q=46.0 size=       0KiB time=00:00:01.48 bitrate=   0.2kbits/s speed=0.0158x elapsed=0:01:33.98    \nframe=   93 fps=1.0 q=45.0 size=       0KiB time=00:00:01.51 bitrate=   0.2kbits/s speed=0.016x elapsed=0:01:34.51    \nframe=   94 fps=1.0 q=40.7 size=       0KiB time=00:00:01.51 bitrate=   0.2kbits/s speed=0.016x elapsed=0:01:35.07    \nframe=   95 fps=1.0 q=45.0 size=       0KiB time=00:00:01.55 bitrate=   0.2kbits/s speed=0.0162x elapsed=0:01:35.63    \nframe=   96 fps=1.0 q=45.0 size=       0KiB time=00:00:01.56 bitrate=   0.2kbits/s speed=0.0163x elapsed=0:01:36.15    \nframe=   96 fps=1.0 q=45.0 size=       0KiB time=00:00:01.56 bitrate=   0.2kbits/s speed=0.0162x elapsed=0:01:36.67    \nframe=   96 fps=1.0 q=45.0 size=       0KiB time=00:00:01.56 bitrate=   0.2kbits/s speed=0.0161x elapsed=0:01:37.18    \nframe=   96 fps=1.0 q=45.0 size=       0KiB time=00:00:01.56 bitrate=   0.2kbits/s speed=0.016x elapsed=0:01:37.72    \nframe=   96 fps=1.0 q=45.0 size=       0KiB time=00:00:01.56 bitrate=   0.2kbits/s speed=0.0159x elapsed=0:01:38.25    \nframe=   97 fps=1.0 q=45.0 size=       0KiB time=00:00:01.58 bitrate=   0.2kbits/s speed=0.016x elapsed=0:01:38.80    \nframe=   97 fps=1.0 q=45.0 size=       0KiB time=00:00:01.58 bitrate=   0.2kbits/s speed=0.0159x elapsed=0:01:39.31    \nframe=   97 fps=1.0 q=45.0 size=       0KiB time=00:00:01.58 bitrate=   0.2kbits/s speed=0.0158x elapsed=0:01:39.91    \nframe=   97 fps=1.0 q=45.0 size=       0KiB time=00:00:01.58 bitrate=   0.2kbits/s speed=0.0157x elapsed=0:01:40.54    \nframe=   97 fps=1.0 q=45.0 size=       0KiB time=00:00:01.58 bitrate=   0.2kbits/s speed=0.0156x elapsed=0:01:41.17    \nframe=   97 fps=1.0 q=45.0 size=       0KiB time=00:00:01.58 bitrate=   0.2kbits/s speed=0.0156x elapsed=0:01:41.76    \nframe=   98 fps=1.0 q=45.0 size=       0KiB time=00:00:01.60 bitrate=   0.2kbits/s speed=0.0156x elapsed=0:01:42.35    \nframe=   99 fps=1.0 q=40.8 size=       0KiB time=00:00:01.61 bitrate=   0.2kbits/s speed=0.0157x elapsed=0:01:42.87    \nframe=   99 fps=1.0 q=40.8 size=       0KiB time=00:00:01.61 bitrate=   0.2kbits/s speed=0.0156x elapsed=0:01:43.40    \nframe=  100 fps=1.0 q=44.9 size=       0KiB time=00:00:01.63 bitrate=   0.2kbits/s speed=0.0157x elapsed=0:01:43.98    \nframe=  100 fps=1.0 q=44.9 size=       0KiB time=00:00:01.63 bitrate=   0.2kbits/s speed=0.0156x elapsed=0:01:44.56    \nframe=  100 fps=1.0 q=44.9 size=       0KiB time=00:00:01.63 bitrate=   0.2kbits/s speed=0.0155x elapsed=0:01:45.15    \nframe=  100 fps=0.9 q=44.9 size=       0KiB time=00:00:01.63 bitrate=   0.2kbits/s speed=0.0154x elapsed=0:01:45.72    \nframe=  100 fps=0.9 q=44.9 size=       0KiB time=00:00:01.63 bitrate=   0.2kbits/s speed=0.0154x elapsed=0:01:46.28    \nframe=  100 fps=0.9 q=44.9 size=       0KiB time=00:00:01.63 bitrate=   0.2kbits/s speed=0.0153x elapsed=0:01:46.82    \nframe=  100 fps=0.9 q=44.9 size=       0KiB time=00:00:01.63 bitrate=   0.2kbits/s speed=0.0152x elapsed=0:01:47.41    \nframe=  100 fps=0.9 q=44.9 size=       0KiB time=00:00:01.63 bitrate=   0.2kbits/s speed=0.0151x elapsed=0:01:48.01    \nframe=  100 fps=0.9 q=44.9 size=       0KiB time=00:00:01.63 bitrate=   0.2kbits/s speed=0.015x elapsed=0:01:48.55    \nframe=  100 fps=0.9 q=44.9 size=       0KiB time=00:00:01.63 bitrate=   0.2kbits/s speed=0.015x elapsed=0:01:49.10    \nframe=  100 fps=0.9 q=44.9 size=       0KiB time=00:00:01.63 bitrate=   0.2kbits/s speed=0.0149x elapsed=0:01:49.65    \nframe=  101 fps=0.9 q=45.0 size=       0KiB time=00:00:01.65 bitrate=   0.2kbits/s speed=0.015x elapsed=0:01:50.22    \nframe=  101 fps=0.9 q=45.0 size=       0KiB time=00:00:01.65 bitrate=   0.2kbits/s speed=0.0149x elapsed=0:01:50.81    \nframe=  101 fps=0.9 q=45.0 size=       0KiB time=00:00:01.65 bitrate=   0.2kbits/s speed=0.0148x elapsed=0:01:51.34    \nframe=  102 fps=0.9 q=45.0 size=       0KiB time=00:00:01.66 bitrate=   0.2kbits/s speed=0.0149x elapsed=0:01:51.86    \nframe=  102 fps=0.9 q=45.0 size=       0KiB time=00:00:01.66 bitrate=   0.2kbits/s speed=0.0148x elapsed=0:01:52.38    \nframe=  102 fps=0.9 q=45.0 size=       0KiB time=00:00:01.66 bitrate=   0.2kbits/s speed=0.0148x elapsed=0:01:52.93    \nframe=  103 fps=0.9 q=40.6 size=       0KiB time=00:00:01.68 bitrate=   0.2kbits/s speed=0.0148x elapsed=0:01:53.48    \nframe=  103 fps=0.9 q=40.6 size=       0KiB time=00:00:01.68 bitrate=   0.2kbits/s speed=0.0148x elapsed=0:01:54.03    \nframe=  103 fps=0.9 q=40.6 size=       0KiB time=00:00:01.68 bitrate=   0.2kbits/s speed=0.0147x elapsed=0:01:54.56    \nframe=  103 fps=0.9 q=40.6 size=       0KiB time=00:00:01.68 bitrate=   0.2kbits/s speed=0.0146x elapsed=0:01:55.10    \nframe=  103 fps=0.9 q=40.6 size=       0KiB time=00:00:01.68 bitrate=   0.2kbits/s speed=0.0146x elapsed=0:01:55.66    \nframe=  103 fps=0.9 q=40.6 size=       0KiB time=00:00:01.68 bitrate=   0.2kbits/s speed=0.0145x elapsed=0:01:56.21    \nframe=  104 fps=0.9 q=43.9 size=       0KiB time=00:00:01.68 bitrate=   0.2kbits/s speed=0.0144x elapsed=0:01:56.80    \nframe=  104 fps=0.9 q=43.9 size=       0KiB time=00:00:01.70 bitrate=   0.2kbits/s speed=0.0145x elapsed=0:01:57.38    \nframe=  105 fps=0.9 q=45.0 size=       0KiB time=00:00:01.71 bitrate=   0.2kbits/s speed=0.0146x elapsed=0:01:57.92    \nframe=  105 fps=0.9 q=45.0 size=       0KiB time=00:00:01.71 bitrate=   0.2kbits/s speed=0.0145x elapsed=0:01:58.47    \nframe=  105 fps=0.9 q=45.0 size=       0KiB time=00:00:01.71 bitrate=   0.2kbits/s speed=0.0144x elapsed=0:01:59.02    \nframe=  106 fps=0.9 q=40.3 size=       0KiB time=00:00:01.73 bitrate=   0.2kbits/s speed=0.0145x elapsed=0:01:59.56    \nframe=  106 fps=0.9 q=40.3 size=       0KiB time=00:00:01.73 bitrate=   0.2kbits/s speed=0.0144x elapsed=0:02:00.15    \nframe=  106 fps=0.9 q=40.3 size=       0KiB time=00:00:01.73 bitrate=   0.2kbits/s speed=0.0144x elapsed=0:02:00.76    \nframe=  106 fps=0.9 q=40.3 size=       0KiB time=00:00:01.73 bitrate=   0.2kbits/s speed=0.0143x elapsed=0:02:01.28    \nframe=  106 fps=0.9 q=40.3 size=       0KiB time=00:00:01.73 bitrate=   0.2kbits/s speed=0.0142x elapsed=0:02:01.82    \nframe=  106 fps=0.9 q=40.3 size=       0KiB time=00:00:01.73 bitrate=   0.2kbits/s speed=0.0142x elapsed=0:02:02.39    \nframe=  106 fps=0.9 q=40.3 size=       0KiB time=00:00:01.73 bitrate=   0.2kbits/s speed=0.0141x elapsed=0:02:02.97    \nframe=  106 fps=0.9 q=40.3 size=       0KiB time=00:00:01.73 bitrate=   0.2kbits/s speed=0.014x elapsed=0:02:03.57    \nframe=  106 fps=0.9 q=40.3 size=       0KiB time=00:00:01.73 bitrate=   0.2kbits/s speed=0.014x elapsed=0:02:04.15    \nframe=  106 fps=0.8 q=40.3 size=       0KiB time=00:00:01.73 bitrate=   0.2kbits/s speed=0.0139x elapsed=0:02:04.78    \nframe=  107 fps=0.9 q=43.8 size=       0KiB time=00:00:01.75 bitrate=   0.2kbits/s speed=0.014x elapsed=0:02:05.39    \nframe=  107 fps=0.8 q=43.8 size=       0KiB time=00:00:01.75 bitrate=   0.2kbits/s speed=0.0139x elapsed=0:02:05.93    \nframe=  107 fps=0.8 q=43.8 size=       0KiB time=00:00:01.75 bitrate=   0.2kbits/s speed=0.0138x elapsed=0:02:06.54    \nframe=  107 fps=0.8 q=43.8 size=       0KiB time=00:00:01.75 bitrate=   0.2kbits/s speed=0.0138x elapsed=0:02:07.09    \nframe=  108 fps=0.8 q=45.0 size=       0KiB time=00:00:01.76 bitrate=   0.2kbits/s speed=0.0138x elapsed=0:02:07.63    \nframe=  110 fps=0.9 q=39.7 size=       0KiB time=00:00:01.80 bitrate=   0.2kbits/s speed=0.014x elapsed=0:02:08.16    \nframe=  110 fps=0.9 q=39.7 size=       0KiB time=00:00:01.80 bitrate=   0.2kbits/s speed=0.014x elapsed=0:02:08.72    \nframe=  111 fps=0.9 q=43.0 size=       0KiB time=00:00:01.81 bitrate=   0.2kbits/s speed=0.0141x elapsed=0:02:09.29    \nframe=  112 fps=0.9 q=44.0 size=       0KiB time=00:00:01.83 bitrate=   0.2kbits/s speed=0.0141x elapsed=0:02:09.90    \nframe=  112 fps=0.9 q=44.0 size=       0KiB time=00:00:01.83 bitrate=   0.2kbits/s speed=0.0141x elapsed=0:02:10.42    \nframe=  112 fps=0.9 q=44.0 size=       0KiB time=00:00:01.83 bitrate=   0.2kbits/s speed=0.014x elapsed=0:02:10.94    \nframe=  112 fps=0.9 q=44.0 size=       0KiB time=00:00:01.83 bitrate=   0.2kbits/s speed=0.0139x elapsed=0:02:11.49    \nframe=  112 fps=0.8 q=44.0 size=       0KiB time=00:00:01.83 bitrate=   0.2kbits/s speed=0.0139x elapsed=0:02:12.01    \nframe=  113 fps=0.9 q=43.0 size=       0KiB time=00:00:01.85 bitrate=   0.2kbits/s speed=0.014x elapsed=0:02:12.54    \nframe=  113 fps=0.8 q=43.0 size=       0KiB time=00:00:01.85 bitrate=   0.2kbits/s speed=0.0139x elapsed=0:02:13.10    \nframe=  113 fps=0.8 q=43.0 size=       0KiB time=00:00:01.85 bitrate=   0.2kbits/s speed=0.0138x elapsed=0:02:13.64    \nframe=  113 fps=0.8 q=43.0 size=       0KiB time=00:00:01.85 bitrate=   0.2kbits/s speed=0.0138x elapsed=0:02:14.16    \nframe=  114 fps=0.8 q=43.0 size=       0KiB time=00:00:01.86 bitrate=   0.2kbits/s speed=0.0139x elapsed=0:02:14.71    \nframe=  115 fps=0.9 q=39.2 size=       0KiB time=00:00:01.88 bitrate=   0.2kbits/s speed=0.0139x elapsed=0:02:15.23    \nframe=  115 fps=0.8 q=39.2 size=       0KiB time=00:00:01.88 bitrate=   0.2kbits/s speed=0.0139x elapsed=0:02:15.77    \nframe=  116 fps=0.9 q=39.4 size=       0KiB time=00:00:01.90 bitrate=   0.2kbits/s speed=0.0139x elapsed=0:02:16.29    \nframe=  117 fps=0.9 q=45.0 size=       0KiB time=00:00:01.91 bitrate=   0.2kbits/s speed=0.014x elapsed=0:02:16.82    \nframe=  117 fps=0.9 q=45.0 size=       0KiB time=00:00:01.91 bitrate=   0.2kbits/s speed=0.014x elapsed=0:02:17.37    \nframe=  117 fps=0.8 q=45.0 size=       0KiB time=00:00:01.91 bitrate=   0.2kbits/s speed=0.0139x elapsed=0:02:17.93    \nframe=  118 fps=0.9 q=44.0 size=       0KiB time=00:00:01.93 bitrate=   0.2kbits/s speed=0.014x elapsed=0:02:18.45    \nframe=  118 fps=0.8 q=44.0 size=       0KiB time=00:00:01.93 bitrate=   0.2kbits/s speed=0.0139x elapsed=0:02:19.02    \nframe=  119 fps=0.9 q=45.0 size=       0KiB time=00:00:01.95 bitrate=   0.2kbits/s speed=0.014x elapsed=0:02:19.54    \nframe=  121 fps=0.9 q=41.8 size=       0KiB time=00:00:01.98 bitrate=   0.2kbits/s speed=0.0142x elapsed=0:02:20.07    \nframe=  121 fps=0.9 q=41.8 size=       0KiB time=00:00:01.98 bitrate=   0.2kbits/s speed=0.0141x elapsed=0:02:20.62    \nframe=  121 fps=0.9 q=41.8 size=       0KiB time=00:00:01.98 bitrate=   0.2kbits/s speed=0.0141x elapsed=0:02:21.14    \nframe=  122 fps=0.9 q=45.0 size=       0KiB time=00:00:02.00 bitrate=   0.2kbits/s speed=0.0141x elapsed=0:02:21.66    \nframe=  122 fps=0.9 q=45.0 size=       0KiB time=00:00:02.00 bitrate=   0.2kbits/s speed=0.0141x elapsed=0:02:22.18    \nframe=  122 fps=0.9 q=45.0 size=       0KiB time=00:00:02.00 bitrate=   0.2kbits/s speed=0.014x elapsed=0:02:22.69    \nframe=  122 fps=0.9 q=45.0 size=       0KiB time=00:00:02.00 bitrate=   0.2kbits/s speed=0.014x elapsed=0:02:23.21    \nframe=  122 fps=0.8 q=45.0 size=       0KiB time=00:00:02.00 bitrate=   0.2kbits/s speed=0.0139x elapsed=0:02:23.73    \nframe=  122 fps=0.8 q=45.0 size=       0KiB time=00:00:02.00 bitrate=   0.2kbits/s speed=0.0139x elapsed=0:02:24.27    \nframe=  123 fps=0.8 q=45.0 size=       0KiB time=00:00:02.01 bitrate=   0.2kbits/s speed=0.0139x elapsed=0:02:24.77    \nframe=  124 fps=0.9 q=44.0 size=       0KiB time=00:00:02.03 bitrate=   0.2kbits/s speed=0.014x elapsed=0:02:25.30    \nframe=  125 fps=0.9 q=39.5 size=       0KiB time=00:00:02.05 bitrate=   0.2kbits/s speed=0.0141x elapsed=0:02:25.82    \nframe=  125 fps=0.9 q=39.5 size=       0KiB time=00:00:02.05 bitrate=   0.2kbits/s speed=0.014x elapsed=0:02:26.34    \nframe=  127 fps=0.9 q=44.0 size=       0KiB time=00:00:02.08 bitrate=   0.2kbits/s speed=0.0142x elapsed=0:02:26.85    \nframe=  127 fps=0.9 q=44.0 size=       0KiB time=00:00:02.08 bitrate=   0.2kbits/s speed=0.0141x elapsed=0:02:27.40    \nframe=  128 fps=0.9 q=43.0 size=       0KiB time=00:00:02.10 bitrate=   0.2kbits/s speed=0.0142x elapsed=0:02:27.94    \nframe=  129 fps=0.9 q=43.0 size=       0KiB time=00:00:02.11 bitrate=   0.2kbits/s speed=0.0143x elapsed=0:02:28.46    \nframe=  131 fps=0.9 q=43.0 size=       0KiB time=00:00:02.15 bitrate=   0.2kbits/s speed=0.0144x elapsed=0:02:29.01    \nframe=  131 fps=0.9 q=43.0 size=       0KiB time=00:00:02.15 bitrate=   0.2kbits/s speed=0.0144x elapsed=0:02:29.54    \nframe=  131 fps=0.9 q=43.0 size=       0KiB time=00:00:02.15 bitrate=   0.2kbits/s speed=0.0143x elapsed=0:02:30.08    \nframe=  131 fps=0.9 q=43.0 size=       0KiB time=00:00:02.15 bitrate=   0.2kbits/s speed=0.0143x elapsed=0:02:30.63    \nframe=  131 fps=0.9 q=43.0 size=       0KiB time=00:00:02.15 bitrate=   0.2kbits/s speed=0.0142x elapsed=0:02:31.18    \nframe=  131 fps=0.9 q=43.0 size=       0KiB time=00:00:02.15 bitrate=   0.2kbits/s speed=0.0142x elapsed=0:02:31.71    \nframe=  131 fps=0.9 q=43.0 size=       0KiB time=00:00:02.15 bitrate=   0.2kbits/s speed=0.0141x elapsed=0:02:32.23    \nframe=  131 fps=0.9 q=43.0 size=       0KiB time=00:00:02.15 bitrate=   0.2kbits/s speed=0.0141x elapsed=0:02:32.75    \nframe=  131 fps=0.9 q=43.0 size=       0KiB time=00:00:02.15 bitrate=   0.2kbits/s speed=0.014x elapsed=0:02:33.27    \nframe=  132 fps=0.9 q=43.0 size=       0KiB time=00:00:02.16 bitrate=   0.2kbits/s speed=0.0141x elapsed=0:02:33.81    \nframe=  133 fps=0.9 q=43.0 size=       0KiB time=00:00:02.18 bitrate=   0.2kbits/s speed=0.0141x elapsed=0:02:34.33    \nframe=  134 fps=0.9 q=38.1 size=       0KiB time=00:00:02.20 bitrate=   0.2kbits/s speed=0.0142x elapsed=0:02:34.86    \nframe=  134 fps=0.9 q=38.1 size=       0KiB time=00:00:02.20 bitrate=   0.2kbits/s speed=0.0142x elapsed=0:02:35.39    \nframe=  135 fps=0.9 q=41.5 size=       0KiB time=00:00:02.21 bitrate=   0.2kbits/s speed=0.0142x elapsed=0:02:35.91    \nframe=  136 fps=0.9 q=42.0 size=       0KiB time=00:00:02.23 bitrate=   0.2kbits/s speed=0.0143x elapsed=0:02:36.45    \nframe=  136 fps=0.9 q=42.0 size=       0KiB time=00:00:02.23 bitrate=   0.2kbits/s speed=0.0142x elapsed=0:02:37.01    \nframe=  136 fps=0.9 q=42.0 size=       0KiB time=00:00:02.23 bitrate=   0.2kbits/s speed=0.0142x elapsed=0:02:37.55    \nframe=  137 fps=0.9 q=41.0 size=       0KiB time=00:00:02.25 bitrate=   0.2kbits/s speed=0.0142x elapsed=0:02:38.08    \nframe=  138 fps=0.9 q=41.0 size=       0KiB time=00:00:02.26 bitrate=   0.2kbits/s speed=0.0143x elapsed=0:02:38.61    \nframe=  138 fps=0.9 q=41.0 size=       0KiB time=00:00:02.26 bitrate=   0.2kbits/s speed=0.0142x elapsed=0:02:39.14    \nframe=  139 fps=0.9 q=38.3 size=       0KiB time=00:00:02.28 bitrate=   0.2kbits/s speed=0.0143x elapsed=0:02:39.68    \nframe=  140 fps=0.9 q=41.1 size=       0KiB time=00:00:02.30 bitrate=   0.2kbits/s speed=0.0144x elapsed=0:02:40.24    \nframe=  140 fps=0.9 q=41.1 size=       0KiB time=00:00:02.30 bitrate=   0.2kbits/s speed=0.0143x elapsed=0:02:40.77    \nframe=  140 fps=0.9 q=41.1 size=       0KiB time=00:00:02.30 bitrate=   0.2kbits/s speed=0.0143x elapsed=0:02:41.29    \nframe=  141 fps=0.9 q=42.0 size=       0KiB time=00:00:02.31 bitrate=   0.2kbits/s speed=0.0143x elapsed=0:02:41.83    \nframe=  141 fps=0.9 q=42.0 size=       0KiB time=00:00:02.31 bitrate=   0.2kbits/s speed=0.0143x elapsed=0:02:42.35    \nframe=  141 fps=0.9 q=42.0 size=       0KiB time=00:00:02.31 bitrate=   0.2kbits/s speed=0.0142x elapsed=0:02:42.88    \nframe=  141 fps=0.9 q=42.0 size=       0KiB time=00:00:02.31 bitrate=   0.2kbits/s speed=0.0142x elapsed=0:02:43.40    \nframe=  142 fps=0.9 q=42.0 size=       0KiB time=00:00:02.33 bitrate=   0.2kbits/s speed=0.0142x elapsed=0:02:43.94    \nframe=  143 fps=0.9 q=42.0 size=       0KiB time=00:00:02.35 bitrate=   0.1kbits/s speed=0.0143x elapsed=0:02:44.45    \nframe=  143 fps=0.9 q=42.0 size=       0KiB time=00:00:02.35 bitrate=   0.1kbits/s speed=0.0142x elapsed=0:02:44.98    \nframe=  143 fps=0.9 q=42.0 size=       0KiB time=00:00:02.35 bitrate=   0.1kbits/s speed=0.0142x elapsed=0:02:45.51    \nframe=  143 fps=0.9 q=42.0 size=       0KiB time=00:00:02.35 bitrate=   0.1kbits/s speed=0.0142x elapsed=0:02:46.03    \nframe=  144 fps=0.9 q=37.8 size=       0KiB time=00:00:02.36 bitrate=   0.1kbits/s speed=0.0142x elapsed=0:02:46.54    \nframe=  144 fps=0.9 q=37.8 size=       0KiB time=00:00:02.36 bitrate=   0.1kbits/s speed=0.0142x elapsed=0:02:47.08    \nframe=  145 fps=0.9 q=38.0 size=       0KiB time=00:00:02.38 bitrate=   0.1kbits/s speed=0.0142x elapsed=0:02:47.62    \nframe=  145 fps=0.9 q=38.0 size=       0KiB time=00:00:02.38 bitrate=   0.1kbits/s speed=0.0142x elapsed=0:02:48.18    \nframe=  146 fps=0.9 q=42.0 size=       0KiB time=00:00:02.40 bitrate=   0.1kbits/s speed=0.0142x elapsed=0:02:48.72    \nframe=  146 fps=0.9 q=42.0 size=       0KiB time=00:00:02.40 bitrate=   0.1kbits/s speed=0.0142x elapsed=0:02:49.25    \nframe=  146 fps=0.9 q=42.0 size=       0KiB time=00:00:02.40 bitrate=   0.1kbits/s speed=0.0141x elapsed=0:02:49.77    \nframe=  146 fps=0.9 q=42.0 size=       0KiB time=00:00:02.40 bitrate=   0.1kbits/s speed=0.0141x elapsed=0:02:50.30    \nframe=  146 fps=0.9 q=42.0 size=       0KiB time=00:00:02.40 bitrate=   0.1kbits/s speed=0.014x elapsed=0:02:50.83    \nframe=  147 fps=0.9 q=42.0 size=       0KiB time=00:00:02.41 bitrate=   0.1kbits/s speed=0.0141x elapsed=0:02:51.37    \nframe=  148 fps=0.9 q=43.0 size=       0KiB time=00:00:02.43 bitrate=   0.1kbits/s speed=0.0142x elapsed=0:02:51.89    \nframe=  149 fps=0.9 q=39.6 size=       0KiB time=00:00:02.45 bitrate=   0.1kbits/s speed=0.0142x elapsed=0:02:52.43    \nframe=  150 fps=0.9 q=40.4 size=     256KiB time=00:00:02.46 bitrate= 850.3kbits/s speed=0.0143x elapsed=0:02:52.96    \nframe=  152 fps=0.9 q=43.0 size=     256KiB time=00:00:02.50 bitrate= 839.0kbits/s speed=0.0144x elapsed=0:02:53.47    \nframe=  154 fps=0.9 q=37.2 size=     256KiB time=00:00:02.53 bitrate= 828.0kbits/s speed=0.0146x elapsed=0:02:53.99    \nframe=  154 fps=0.9 q=37.2 size=     256KiB time=00:00:02.53 bitrate= 828.0kbits/s speed=0.0145x elapsed=0:02:54.51    \nframe=  154 fps=0.9 q=37.2 size=     256KiB time=00:00:02.53 bitrate= 828.0kbits/s speed=0.0145x elapsed=0:02:55.04    \nframe=  155 fps=0.9 q=42.0 size=     256KiB time=00:00:02.55 bitrate= 822.6kbits/s speed=0.0145x elapsed=0:02:55.61    \nframe=  155 fps=0.9 q=42.0 size=     256KiB time=00:00:02.55 bitrate= 822.6kbits/s speed=0.0145x elapsed=0:02:56.15    \nframe=  155 fps=0.9 q=42.0 size=     256KiB time=00:00:02.55 bitrate= 822.6kbits/s speed=0.0144x elapsed=0:02:56.68    \nframe=  155 fps=0.9 q=42.0 size=     256KiB time=00:00:02.55 bitrate= 822.6kbits/s speed=0.0144x elapsed=0:02:57.19    \nframe=  156 fps=0.9 q=43.0 size=     256KiB time=00:00:02.56 bitrate= 817.2kbits/s speed=0.0144x elapsed=0:02:57.71    \nframe=  156 fps=0.9 q=43.0 size=     256KiB time=00:00:02.56 bitrate= 817.2kbits/s speed=0.0144x elapsed=0:02:58.25    \nframe=  157 fps=0.9 q=42.0 size=     256KiB time=00:00:02.58 bitrate= 811.9kbits/s speed=0.0144x elapsed=0:02:58.79    \nframe=  159 fps=0.9 q=40.7 size=     256KiB time=00:00:02.61 bitrate= 801.6kbits/s speed=0.0146x elapsed=0:02:59.34    \nframe=  159 fps=0.9 q=40.7 size=     256KiB time=00:00:02.61 bitrate= 801.6kbits/s speed=0.0145x elapsed=0:02:59.86    \nframe=  159 fps=0.9 q=40.7 size=     256KiB time=00:00:02.61 bitrate= 801.6kbits/s speed=0.0145x elapsed=0:03:00.39    \nframe=  159 fps=0.9 q=40.7 size=     256KiB time=00:00:02.61 bitrate= 801.6kbits/s speed=0.0145x elapsed=0:03:00.95    \nframe=  159 fps=0.9 q=40.7 size=     256KiB time=00:00:02.61 bitrate= 801.6kbits/s speed=0.0144x elapsed=0:03:01.52    \nframe=  159 fps=0.9 q=40.7 size=     256KiB time=00:00:02.61 bitrate= 801.6kbits/s speed=0.0144x elapsed=0:03:02.02    \nframe=  160 fps=0.9 q=41.0 size=     256KiB time=00:00:02.63 bitrate= 796.5kbits/s speed=0.0144x elapsed=0:03:02.56    \nframe=  160 fps=0.9 q=41.0 size=     256KiB time=00:00:02.63 bitrate= 796.5kbits/s speed=0.0144x elapsed=0:03:03.09    \nframe=  160 fps=0.9 q=41.0 size=     256KiB time=00:00:02.63 bitrate= 796.5kbits/s speed=0.0143x elapsed=0:03:03.62    \nframe=  161 fps=0.9 q=41.1 size=     256KiB time=00:00:02.65 bitrate= 791.5kbits/s speed=0.0144x elapsed=0:03:04.15    \nframe=  161 fps=0.9 q=41.1 size=     256KiB time=00:00:02.65 bitrate= 791.5kbits/s speed=0.0143x elapsed=0:03:04.68    \nframe=  161 fps=0.9 q=41.1 size=     256KiB time=00:00:02.65 bitrate= 791.5kbits/s speed=0.0143x elapsed=0:03:05.28    \nframe=  161 fps=0.9 q=41.1 size=     256KiB time=00:00:02.65 bitrate= 791.5kbits/s speed=0.0143x elapsed=0:03:05.89    \nframe=  161 fps=0.9 q=41.1 size=     256KiB time=00:00:02.65 bitrate= 791.5kbits/s speed=0.0142x elapsed=0:03:06.49    \nframe=  162 fps=0.9 q=37.3 size=     256KiB time=00:00:02.66 bitrate= 786.6kbits/s speed=0.0143x elapsed=0:03:07.08    \nframe=  162 fps=0.9 q=37.3 size=     256KiB time=00:00:02.66 bitrate= 786.6kbits/s speed=0.0142x elapsed=0:03:07.72    \nframe=  162 fps=0.9 q=37.3 size=     256KiB time=00:00:02.66 bitrate= 786.6kbits/s speed=0.0142x elapsed=0:03:08.38    \nframe=  162 fps=0.9 q=37.3 size=     256KiB time=00:00:02.66 bitrate= 786.6kbits/s speed=0.0141x elapsed=0:03:08.96    \nframe=  163 fps=0.9 q=40.0 size=     256KiB time=00:00:02.68 bitrate= 781.7kbits/s speed=0.0142x elapsed=0:03:09.54    \nframe=  163 fps=0.9 q=40.0 size=     256KiB time=00:00:02.68 bitrate= 781.7kbits/s speed=0.0141x elapsed=0:03:10.15    \nframe=  163 fps=0.9 q=40.0 size=     256KiB time=00:00:02.68 bitrate= 781.7kbits/s speed=0.0141x elapsed=0:03:10.67    \nframe=  163 fps=0.9 q=40.0 size=     256KiB time=00:00:02.68 bitrate= 781.7kbits/s speed=0.014x elapsed=0:03:11.20    \nframe=  164 fps=0.9 q=41.0 size=     256KiB time=00:00:02.68 bitrate= 781.7kbits/s speed=0.014x elapsed=0:03:11.85    \nframe=  165 fps=0.9 q=40.0 size=     256KiB time=00:00:02.71 bitrate= 772.1kbits/s speed=0.0141x elapsed=0:03:12.40    \nframe=  165 fps=0.9 q=40.0 size=     256KiB time=00:00:02.71 bitrate= 772.1kbits/s speed=0.0141x elapsed=0:03:12.91    \nframe=  165 fps=0.9 q=40.0 size=     256KiB time=00:00:02.71 bitrate= 772.1kbits/s speed=0.014x elapsed=0:03:13.48    \nframe=  166 fps=0.9 q=41.0 size=     256KiB time=00:00:02.73 bitrate= 767.4kbits/s speed=0.0141x elapsed=0:03:13.99    \nframe=  166 fps=0.9 q=41.0 size=     256KiB time=00:00:02.73 bitrate= 767.4kbits/s speed=0.014x elapsed=0:03:14.54    \nframe=  166 fps=0.9 q=41.0 size=     256KiB time=00:00:02.73 bitrate= 767.4kbits/s speed=0.014x elapsed=0:03:15.09    \nframe=  166 fps=0.8 q=41.0 size=     256KiB time=00:00:02.73 bitrate= 767.4kbits/s speed=0.014x elapsed=0:03:15.62    \nframe=  166 fps=0.8 q=41.0 size=     256KiB time=00:00:02.73 bitrate= 767.4kbits/s speed=0.0139x elapsed=0:03:16.17    \nframe=  167 fps=0.8 q=37.0 size=     256KiB time=00:00:02.75 bitrate= 762.7kbits/s speed=0.014x elapsed=0:03:16.70    \nframe=  167 fps=0.8 q=37.0 size=     256KiB time=00:00:02.75 bitrate= 762.7kbits/s speed=0.0139x elapsed=0:03:17.22    \nframe=  168 fps=0.8 q=36.8 size=     256KiB time=00:00:02.76 bitrate= 758.1kbits/s speed=0.014x elapsed=0:03:17.73    \nframe=  169 fps=0.9 q=41.0 size=     256KiB time=00:00:02.78 bitrate= 753.6kbits/s speed=0.014x elapsed=0:03:18.27    \nframe=  171 fps=0.9 q=40.0 size=     256KiB time=00:00:02.81 bitrate= 744.7kbits/s speed=0.0142x elapsed=0:03:18.78    \nframe=  171 fps=0.9 q=40.0 size=     256KiB time=00:00:02.81 bitrate= 744.7kbits/s speed=0.0141x elapsed=0:03:19.31    \nframe=  172 fps=0.9 q=41.0 size=     256KiB time=00:00:02.83 bitrate= 740.3kbits/s speed=0.0142x elapsed=0:03:19.83    \nframe=  172 fps=0.9 q=41.0 size=     256KiB time=00:00:02.83 bitrate= 740.3kbits/s speed=0.0141x elapsed=0:03:20.34    \nframe=  172 fps=0.9 q=41.0 size=     256KiB time=00:00:02.83 bitrate= 740.3kbits/s speed=0.0141x elapsed=0:03:20.86    \nframe=  174 fps=0.9 q=40.0 size=     256KiB time=00:00:02.86 bitrate= 731.7kbits/s speed=0.0142x elapsed=0:03:21.38    \nframe=  174 fps=0.9 q=40.0 size=     256KiB time=00:00:02.86 bitrate= 731.7kbits/s speed=0.0142x elapsed=0:03:21.90    \nframe=  175 fps=0.9 q=36.4 size=     256KiB time=00:00:02.88 bitrate= 727.5kbits/s speed=0.0142x elapsed=0:03:22.42    \nframe=  175 fps=0.9 q=36.4 size=     256KiB time=00:00:02.88 bitrate= 727.5kbits/s speed=0.0142x elapsed=0:03:22.95    \nframe=  176 fps=0.9 q=39.8 size=     256KiB time=00:00:02.90 bitrate= 723.3kbits/s speed=0.0143x elapsed=0:03:23.48    \nframe=  176 fps=0.9 q=39.8 size=     256KiB time=00:00:02.90 bitrate= 723.3kbits/s speed=0.0142x elapsed=0:03:24.02    \nframe=  177 fps=0.9 q=41.0 size=     256KiB time=00:00:02.91 bitrate= 719.1kbits/s speed=0.0143x elapsed=0:03:24.56    \nframe=  177 fps=0.9 q=41.0 size=     256KiB time=00:00:02.91 bitrate= 719.1kbits/s speed=0.0142x elapsed=0:03:25.09    \nframe=  179 fps=0.9 q=39.9 size=     256KiB time=00:00:02.95 bitrate= 711.0kbits/s speed=0.0143x elapsed=0:03:25.62    \nframe=  180 fps=0.9 q=40.0 size=     256KiB time=00:00:02.96 bitrate= 707.0kbits/s speed=0.0144x elapsed=0:03:26.16    \nframe=  180 fps=0.9 q=40.0 size=     256KiB time=00:00:02.96 bitrate= 707.0kbits/s speed=0.0144x elapsed=0:03:26.70    \nframe=  181 fps=0.9 q=40.0 size=     256KiB time=00:00:02.98 bitrate= 703.1kbits/s speed=0.0144x elapsed=0:03:27.22    \nframe=  182 fps=0.9 q=36.8 size=     256KiB time=00:00:03.00 bitrate= 699.2kbits/s speed=0.0144x elapsed=0:03:27.73    \nframe=  183 fps=0.9 q=35.3 size=     256KiB time=00:00:03.01 bitrate= 695.3kbits/s speed=0.0145x elapsed=0:03:28.28    \nframe=  183 fps=0.9 q=35.3 size=     256KiB time=00:00:03.01 bitrate= 695.3kbits/s speed=0.0144x elapsed=0:03:28.81    \nframe=  184 fps=0.9 q=41.0 size=     256KiB time=00:00:03.03 bitrate= 691.5kbits/s speed=0.0145x elapsed=0:03:29.33    \nframe=  184 fps=0.9 q=41.0 size=     256KiB time=00:00:03.03 bitrate= 691.5kbits/s speed=0.0145x elapsed=0:03:29.85    \nframe=  184 fps=0.9 q=41.0 size=     256KiB time=00:00:03.03 bitrate= 691.5kbits/s speed=0.0144x elapsed=0:03:30.39    \nframe=  184 fps=0.9 q=41.0 size=     256KiB time=00:00:03.03 bitrate= 691.5kbits/s speed=0.0144x elapsed=0:03:30.94    \nframe=  184 fps=0.9 q=41.0 size=     256KiB time=00:00:03.03 bitrate= 691.5kbits/s speed=0.0143x elapsed=0:03:31.48    \nframe=  184 fps=0.9 q=41.0 size=     256KiB time=00:00:03.03 bitrate= 691.5kbits/s speed=0.0143x elapsed=0:03:32.03    \nframe=  186 fps=0.9 q=42.0 size=     256KiB time=00:00:03.06 bitrate= 684.0kbits/s speed=0.0144x elapsed=0:03:32.56    \nframe=  187 fps=0.9 q=38.2 size=     256KiB time=00:00:03.08 bitrate= 680.3kbits/s speed=0.0145x elapsed=0:03:33.09    \nframe=  188 fps=0.9 q=37.2 size=     256KiB time=00:00:03.10 bitrate= 676.6kbits/s speed=0.0145x elapsed=0:03:33.63    \nframe=  188 fps=0.9 q=37.2 size=     256KiB time=00:00:03.10 bitrate= 676.6kbits/s speed=0.0145x elapsed=0:03:34.16    \nframe=  189 fps=0.9 q=42.0 size=     256KiB time=00:00:03.11 bitrate= 673.0kbits/s speed=0.0145x elapsed=0:03:34.70    \nframe=  189 fps=0.9 q=42.0 size=     256KiB time=00:00:03.11 bitrate= 673.0kbits/s speed=0.0145x elapsed=0:03:35.22    \nframe=  189 fps=0.9 q=42.0 size=     256KiB time=00:00:03.11 bitrate= 673.0kbits/s speed=0.0144x elapsed=0:03:35.76    \nframe=  189 fps=0.9 q=42.0 size=     256KiB time=00:00:03.11 bitrate= 673.0kbits/s speed=0.0144x elapsed=0:03:36.27    \nframe=  189 fps=0.9 q=42.0 size=     256KiB time=00:00:03.11 bitrate= 673.0kbits/s speed=0.0144x elapsed=0:03:36.80    \nframe=  190 fps=0.9 q=42.0 size=     256KiB time=00:00:03.13 bitrate= 669.4kbits/s speed=0.0144x elapsed=0:03:37.32    \nframe=  190 fps=0.9 q=42.0 size=     256KiB time=00:00:03.13 bitrate= 669.4kbits/s speed=0.0144x elapsed=0:03:37.84    \nframe=  192 fps=0.9 q=37.0 size=     256KiB time=00:00:03.16 bitrate= 662.4kbits/s speed=0.0145x elapsed=0:03:38.37    \nframe=  192 fps=0.9 q=37.0 size=     256KiB time=00:00:03.16 bitrate= 662.4kbits/s speed=0.0145x elapsed=0:03:38.90    \nframe=  192 fps=0.9 q=37.0 size=     256KiB time=00:00:03.16 bitrate= 662.4kbits/s speed=0.0144x elapsed=0:03:39.45    \nframe=  192 fps=0.9 q=37.0 size=     256KiB time=00:00:03.16 bitrate= 662.4kbits/s speed=0.0144x elapsed=0:03:39.96    \nframe=  192 fps=0.9 q=37.0 size=     256KiB time=00:00:03.16 bitrate= 662.4kbits/s speed=0.0144x elapsed=0:03:40.50    \nframe=  194 fps=0.9 q=42.0 size=     256KiB time=00:00:03.20 bitrate= 655.5kbits/s speed=0.0145x elapsed=0:03:41.03    \nframe=  195 fps=0.9 q=41.0 size=     256KiB time=00:00:03.21 bitrate= 652.1kbits/s speed=0.0145x elapsed=0:03:41.57    \nframe=  195 fps=0.9 q=41.0 size=     256KiB time=00:00:03.21 bitrate= 652.1kbits/s speed=0.0145x elapsed=0:03:42.12    \nframe=  197 fps=0.9 q=37.0 size=     256KiB time=00:00:03.25 bitrate= 645.4kbits/s speed=0.0146x elapsed=0:03:42.66    \nframe=  197 fps=0.9 q=37.0 size=     256KiB time=00:00:03.25 bitrate= 645.4kbits/s speed=0.0146x elapsed=0:03:43.19    \nframe=  197 fps=0.9 q=37.0 size=     256KiB time=00:00:03.25 bitrate= 645.4kbits/s speed=0.0145x elapsed=0:03:43.72    \nframe=  197 fps=0.9 q=37.0 size=     256KiB time=00:00:03.25 bitrate= 645.4kbits/s speed=0.0145x elapsed=0:03:44.28    \nframe=  197 fps=0.9 q=37.0 size=     256KiB time=00:00:03.25 bitrate= 645.4kbits/s speed=0.0145x elapsed=0:03:44.82    \nframe=  197 fps=0.9 q=37.0 size=     256KiB time=00:00:03.25 bitrate= 645.4kbits/s speed=0.0144x elapsed=0:03:45.35    \nframe=  198 fps=0.9 q=40.1 size=     256KiB time=00:00:03.26 bitrate= 642.1kbits/s speed=0.0145x elapsed=0:03:45.87    \nframe=  199 fps=0.9 q=41.0 size=     256KiB time=00:00:03.28 bitrate= 638.8kbits/s speed=0.0145x elapsed=0:03:46.39    \nframe=  200 fps=0.9 q=37.1 size=     256KiB time=00:00:03.30 bitrate= 635.6kbits/s speed=0.0145x elapsed=0:03:46.91    \nframe=  200 fps=0.9 q=37.1 size=     256KiB time=00:00:03.30 bitrate= 635.6kbits/s speed=0.0145x elapsed=0:03:47.43    \nframe=  201 fps=0.9 q=39.2 size=     256KiB time=00:00:03.31 bitrate= 632.4kbits/s speed=0.0145x elapsed=0:03:47.96    \nframe=  201 fps=0.9 q=39.2 size=     256KiB time=00:00:03.31 bitrate= 632.4kbits/s speed=0.0145x elapsed=0:03:48.48    \nframe=  201 fps=0.9 q=39.2 size=     256KiB time=00:00:03.31 bitrate= 632.4kbits/s speed=0.0145x elapsed=0:03:49.03    \nframe=  202 fps=0.9 q=41.0 size=     256KiB time=00:00:03.33 bitrate= 629.3kbits/s speed=0.0145x elapsed=0:03:49.55    \nframe=  202 fps=0.9 q=41.0 size=     256KiB time=00:00:03.33 bitrate= 629.3kbits/s speed=0.0145x elapsed=0:03:50.09    \nframe=  202 fps=0.9 q=41.0 size=     256KiB time=00:00:03.33 bitrate= 629.3kbits/s speed=0.0145x elapsed=0:03:50.61    \nframe=  202 fps=0.9 q=41.0 size=     256KiB time=00:00:03.33 bitrate= 629.3kbits/s speed=0.0144x elapsed=0:03:51.15    \nframe=  202 fps=0.9 q=41.0 size=     256KiB time=00:00:03.33 bitrate= 629.3kbits/s speed=0.0144x elapsed=0:03:51.66    \nframe=  205 fps=0.9 q=36.7 size=     256KiB time=00:00:03.38 bitrate= 620.0kbits/s speed=0.0146x elapsed=0:03:52.19    \nframe=  205 fps=0.9 q=36.7 size=     256KiB time=00:00:03.38 bitrate= 620.0kbits/s speed=0.0145x elapsed=0:03:52.73    \nframe=  206 fps=0.9 q=39.9 size=     256KiB time=00:00:03.40 bitrate= 616.9kbits/s speed=0.0146x elapsed=0:03:53.28    \nframe=  207 fps=0.9 q=41.0 size=     256KiB time=00:00:03.41 bitrate= 613.9kbits/s speed=0.0146x elapsed=0:03:53.81    \nframe=  207 fps=0.9 q=41.0 size=     256KiB time=00:00:03.41 bitrate= 613.9kbits/s speed=0.0146x elapsed=0:03:54.35    \nframe=  208 fps=0.9 q=40.1 size=     256KiB time=00:00:03.43 bitrate= 610.9kbits/s speed=0.0146x elapsed=0:03:54.87    \nframe=  208 fps=0.9 q=40.1 size=     256KiB time=00:00:03.43 bitrate= 610.9kbits/s speed=0.0146x elapsed=0:03:55.41    \nframe=  209 fps=0.9 q=36.5 size=     256KiB time=00:00:03.45 bitrate= 608.0kbits/s speed=0.0146x elapsed=0:03:55.95    \nframe=  210 fps=0.9 q=35.4 size=     256KiB time=00:00:03.46 bitrate= 605.0kbits/s speed=0.0147x elapsed=0:03:56.51    \nframe=  210 fps=0.9 q=35.4 size=     256KiB time=00:00:03.46 bitrate= 605.0kbits/s speed=0.0146x elapsed=0:03:57.04    \nframe=  211 fps=0.9 q=41.0 size=     256KiB time=00:00:03.48 bitrate= 602.2kbits/s speed=0.0147x elapsed=0:03:57.56    \nframe=  213 fps=0.9 q=40.0 size=     256KiB time=00:00:03.51 bitrate= 596.4kbits/s speed=0.0148x elapsed=0:03:58.10    \nframe=  213 fps=0.9 q=40.0 size=     256KiB time=00:00:03.51 bitrate= 596.4kbits/s speed=0.0147x elapsed=0:03:58.63    \nframe=  213 fps=0.9 q=40.0 size=     256KiB time=00:00:03.51 bitrate= 596.4kbits/s speed=0.0147x elapsed=0:03:59.15    \nframe=  214 fps=0.9 q=41.0 size=     256KiB time=00:00:03.53 bitrate= 593.6kbits/s speed=0.0147x elapsed=0:03:59.69    \nframe=  214 fps=0.9 q=41.0 size=     256KiB time=00:00:03.53 bitrate= 593.6kbits/s speed=0.0147x elapsed=0:04:00.23    \nframe=  214 fps=0.9 q=41.0 size=     256KiB time=00:00:03.53 bitrate= 593.6kbits/s speed=0.0147x elapsed=0:04:00.75    \nframe=  214 fps=0.9 q=41.0 size=     256KiB time=00:00:03.53 bitrate= 593.6kbits/s speed=0.0146x elapsed=0:04:01.28    \nframe=  216 fps=0.9 q=40.0 size=     256KiB time=00:00:03.56 bitrate= 588.1kbits/s speed=0.0147x elapsed=0:04:01.81    \nframe=  216 fps=0.9 q=40.0 size=     256KiB time=00:00:03.56 bitrate= 588.1kbits/s speed=0.0147x elapsed=0:04:02.34    \nframe=  217 fps=0.9 q=36.5 size=     256KiB time=00:00:03.58 bitrate= 585.4kbits/s speed=0.0148x elapsed=0:04:02.88    \nframe=  218 fps=0.9 q=36.0 size=     256KiB time=00:00:03.60 bitrate= 582.6kbits/s speed=0.0148x elapsed=0:04:03.39    \nframe=  219 fps=0.9 q=40.0 size=     256KiB time=00:00:03.61 bitrate= 580.0kbits/s speed=0.0148x elapsed=0:04:03.92    \nframe=  220 fps=0.9 q=36.4 size=     256KiB time=00:00:03.63 bitrate= 577.3kbits/s speed=0.0149x elapsed=0:04:04.46    \nframe=  220 fps=0.9 q=36.4 size=     256KiB time=00:00:03.63 bitrate= 577.3kbits/s speed=0.0148x elapsed=0:04:05.00    \nframe=  221 fps=0.9 q=38.9 size=     256KiB time=00:00:03.65 bitrate= 574.7kbits/s speed=0.0149x elapsed=0:04:05.54    \nframe=  221 fps=0.9 q=38.9 size=     256KiB time=00:00:03.65 bitrate= 574.7kbits/s speed=0.0148x elapsed=0:04:06.06    \nframe=  221 fps=0.9 q=38.9 size=     256KiB time=00:00:03.65 bitrate= 574.7kbits/s speed=0.0148x elapsed=0:04:06.60    \nframe=  222 fps=0.9 q=41.0 size=     256KiB time=00:00:03.66 bitrate= 572.0kbits/s speed=0.0148x elapsed=0:04:07.13    \nframe=  223 fps=0.9 q=36.4 size=     256KiB time=00:00:03.68 bitrate= 569.5kbits/s speed=0.0149x elapsed=0:04:07.67    \nframe=  223 fps=0.9 q=36.4 size=     256KiB time=00:00:03.68 bitrate= 569.5kbits/s speed=0.0148x elapsed=0:04:08.21    \nframe=  224 fps=0.9 q=34.8 size=     256KiB time=00:00:03.70 bitrate= 566.9kbits/s speed=0.0149x elapsed=0:04:08.74    \nframe=  225 fps=0.9 q=40.0 size=     256KiB time=00:00:03.71 bitrate= 564.4kbits/s speed=0.0149x elapsed=0:04:09.26    \nframe=  227 fps=0.9 q=40.0 size=     256KiB time=00:00:03.75 bitrate= 559.3kbits/s speed=0.015x elapsed=0:04:09.78    \nframe=  228 fps=0.9 q=41.0 size=     256KiB time=00:00:03.76 bitrate= 556.9kbits/s speed=0.015x elapsed=0:04:10.36    \nframe=  228 fps=0.9 q=41.0 size=     256KiB time=00:00:03.76 bitrate= 556.9kbits/s speed=0.015x elapsed=0:04:10.92    \nframe=  229 fps=0.9 q=40.0 size=     256KiB time=00:00:03.78 bitrate= 554.4kbits/s speed=0.015x elapsed=0:04:11.48    \nframe=  231 fps=0.9 q=50.8 size=     256KiB time=00:00:03.81 bitrate= 549.6kbits/s speed=0.0151x elapsed=0:04:12.01    \nframe=  231 fps=0.9 q=50.8 size=     256KiB time=00:00:03.81 bitrate= 549.6kbits/s speed=0.0151x elapsed=0:04:12.53    \nframe=  235 fps=0.9 q=51.0 size=     256KiB time=00:00:03.88 bitrate= 540.1kbits/s speed=0.0153x elapsed=0:04:13.04    \nframe=  235 fps=0.9 q=51.0 size=     256KiB time=00:00:03.88 bitrate= 540.1kbits/s speed=0.0153x elapsed=0:04:13.56    \nframe=  237 fps=0.9 q=51.0 size=     256KiB time=00:00:03.91 bitrate= 535.5kbits/s speed=0.0154x elapsed=0:04:14.10    \nframe=  237 fps=0.9 q=51.0 size=     256KiB time=00:00:03.91 bitrate= 535.5kbits/s speed=0.0154x elapsed=0:04:14.64    \nframe=  237 fps=0.9 q=51.0 size=     256KiB time=00:00:03.91 bitrate= 535.5kbits/s speed=0.0153x elapsed=0:04:15.20    \nframe=  238 fps=0.9 q=50.8 size=     256KiB time=00:00:03.93 bitrate= 533.3kbits/s speed=0.0154x elapsed=0:04:15.74    \nframe=  238 fps=0.9 q=50.8 size=     256KiB time=00:00:03.93 bitrate= 533.3kbits/s speed=0.0153x elapsed=0:04:16.37    \nframe=  238 fps=0.9 q=50.8 size=     256KiB time=00:00:03.93 bitrate= 533.3kbits/s speed=0.0153x elapsed=0:04:16.96    \nframe=  239 fps=0.9 q=51.0 size=     256KiB time=00:00:03.95 bitrate= 531.0kbits/s speed=0.0153x elapsed=0:04:17.51    \nframe=  240 fps=0.9 q=51.0 size=     256KiB time=00:00:03.96 bitrate= 528.8kbits/s speed=0.0154x elapsed=0:04:18.06    \nframe=  240 fps=0.9 q=51.0 size=     256KiB time=00:00:03.96 bitrate= 528.8kbits/s speed=0.0153x elapsed=0:04:18.57    \nframe=  241 fps=0.9 q=51.0 size=     256KiB time=00:00:03.98 bitrate= 526.6kbits/s speed=0.0154x elapsed=0:04:19.14    \nframe=  241 fps=0.9 q=51.0 size=     256KiB time=00:00:03.98 bitrate= 526.6kbits/s speed=0.0153x elapsed=0:04:19.66    \nframe=  241 fps=0.9 q=51.0 size=     256KiB time=00:00:03.98 bitrate= 526.6kbits/s speed=0.0153x elapsed=0:04:20.18    \nframe=  242 fps=0.9 q=51.0 size=     256KiB time=00:00:04.00 bitrate= 524.4kbits/s speed=0.0153x elapsed=0:04:20.71    \nframe=  243 fps=0.9 q=50.7 size=     256KiB time=00:00:04.00 bitrate= 524.4kbits/s speed=0.0153x elapsed=0:04:21.26    \nframe=  243 fps=0.9 q=50.7 size=     256KiB time=00:00:04.01 bitrate= 522.2kbits/s speed=0.0153x elapsed=0:04:21.84    \nframe=  243 fps=0.9 q=50.7 size=     256KiB time=00:00:04.01 bitrate= 522.2kbits/s speed=0.0153x elapsed=0:04:22.38    \nframe=  243 fps=0.9 q=50.7 size=     256KiB time=00:00:04.01 bitrate= 522.2kbits/s speed=0.0153x elapsed=0:04:23.02    \nframe=  243 fps=0.9 q=50.7 size=     256KiB time=00:00:04.01 bitrate= 522.2kbits/s speed=0.0152x elapsed=0:04:23.57    \nframe=  244 fps=0.9 q=51.0 size=     256KiB time=00:00:04.03 bitrate= 520.0kbits/s speed=0.0153x elapsed=0:04:24.12    \nframe=  244 fps=0.9 q=51.0 size=     256KiB time=00:00:04.03 bitrate= 520.0kbits/s speed=0.0152x elapsed=0:04:24.74    \nframe=  244 fps=0.9 q=51.0 size=     256KiB time=00:00:04.03 bitrate= 520.0kbits/s speed=0.0152x elapsed=0:04:25.36    \nframe=  245 fps=0.9 q=50.7 size=     256KiB time=00:00:04.05 bitrate= 517.9kbits/s speed=0.0152x elapsed=0:04:25.93    \nframe=  245 fps=0.9 q=50.7 size=     256KiB time=00:00:04.05 bitrate= 517.9kbits/s speed=0.0152x elapsed=0:04:26.50    \nframe=  245 fps=0.9 q=50.7 size=     256KiB time=00:00:04.05 bitrate= 517.9kbits/s speed=0.0152x elapsed=0:04:27.12    \nframe=  246 fps=0.9 q=51.0 size=     256KiB time=00:00:04.06 bitrate= 515.8kbits/s speed=0.0152x elapsed=0:04:27.71    \nframe=  246 fps=0.9 q=51.0 size=     256KiB time=00:00:04.06 bitrate= 515.8kbits/s speed=0.0152x elapsed=0:04:28.34    \nframe=  246 fps=0.9 q=51.0 size=     256KiB time=00:00:04.06 bitrate= 515.8kbits/s speed=0.0151x elapsed=0:04:28.88    \nframe=  246 fps=0.9 q=51.0 size=     256KiB time=00:00:04.06 bitrate= 515.8kbits/s speed=0.0151x elapsed=0:04:29.44    \nframe=  247 fps=0.9 q=51.0 size=     256KiB time=00:00:04.08 bitrate= 513.7kbits/s speed=0.0151x elapsed=0:04:29.97    \nframe=  247 fps=0.9 q=51.0 size=     256KiB time=00:00:04.08 bitrate= 513.7kbits/s speed=0.0151x elapsed=0:04:30.50    \nframe=  247 fps=0.9 q=51.0 size=     256KiB time=00:00:04.08 bitrate= 513.7kbits/s speed=0.0151x elapsed=0:04:31.04    \nframe=  247 fps=0.9 q=51.0 size=     256KiB time=00:00:04.08 bitrate= 513.7kbits/s speed=0.015x elapsed=0:04:31.58    \nframe=  248 fps=0.9 q=51.0 size=     256KiB time=00:00:04.10 bitrate= 511.6kbits/s speed=0.0151x elapsed=0:04:32.09    \nframe=  248 fps=0.9 q=51.0 size=     256KiB time=00:00:04.10 bitrate= 511.6kbits/s speed=0.015x elapsed=0:04:32.60    \nframe=  248 fps=0.9 q=51.0 size=     256KiB time=00:00:04.10 bitrate= 511.6kbits/s speed=0.015x elapsed=0:04:33.20    \nframe=  249 fps=0.9 q=47.6 size=     256KiB time=00:00:04.11 bitrate= 509.5kbits/s speed=0.015x elapsed=0:04:33.71    \nframe=  250 fps=0.9 q=51.0 size=     256KiB time=00:00:04.13 bitrate= 507.5kbits/s speed=0.0151x elapsed=0:04:34.24    \nframe=  251 fps=0.9 q=51.0 size=     256KiB time=00:00:04.15 bitrate= 505.4kbits/s speed=0.0151x elapsed=0:04:34.74    \nframe=  251 fps=0.9 q=51.0 size=     256KiB time=00:00:04.15 bitrate= 505.4kbits/s speed=0.0151x elapsed=0:04:35.29    \nframe=  252 fps=0.9 q=43.8 size=     256KiB time=00:00:04.16 bitrate= 503.4kbits/s speed=0.0151x elapsed=0:04:35.80    \nframe=  254 fps=0.9 q=47.0 size=     256KiB time=00:00:04.20 bitrate= 499.4kbits/s speed=0.0152x elapsed=0:04:36.32    \nframe=  255 fps=0.9 q=51.0 size=     256KiB time=00:00:04.21 bitrate= 497.4kbits/s speed=0.0152x elapsed=0:04:36.84    \nframe=  257 fps=0.9 q=51.0 size=     256KiB time=00:00:04.25 bitrate= 493.5kbits/s speed=0.0153x elapsed=0:04:37.36    \nframe=  258 fps=0.9 q=51.0 size=     256KiB time=00:00:04.26 bitrate= 491.6kbits/s speed=0.0154x elapsed=0:04:37.89    \nframe=  259 fps=0.9 q=51.0 size=     256KiB time=00:00:04.28 bitrate= 489.7kbits/s speed=0.0154x elapsed=0:04:38.44    \nframe=  259 fps=0.9 q=51.0 size=     256KiB time=00:00:04.28 bitrate= 489.7kbits/s speed=0.0154x elapsed=0:04:38.95    \nframe=  259 fps=0.9 q=51.0 size=     256KiB time=00:00:04.28 bitrate= 489.7kbits/s speed=0.0153x elapsed=0:04:39.48    \nframe=  260 fps=0.9 q=48.0 size=     256KiB time=00:00:04.30 bitrate= 487.8kbits/s speed=0.0154x elapsed=0:04:40.03    \nframe=  260 fps=0.9 q=48.0 size=     256KiB time=00:00:04.30 bitrate= 487.8kbits/s speed=0.0153x elapsed=0:04:40.56    \nframe=  260 fps=0.9 q=48.0 size=     256KiB time=00:00:04.30 bitrate= 487.8kbits/s speed=0.0153x elapsed=0:04:41.09    \nframe=  261 fps=0.9 q=51.0 size=     256KiB time=00:00:04.31 bitrate= 485.9kbits/s speed=0.0153x elapsed=0:04:41.61    \nframe=  261 fps=0.9 q=51.0 size=     256KiB time=00:00:04.31 bitrate= 485.9kbits/s speed=0.0153x elapsed=0:04:42.15    \nframe=  262 fps=0.9 q=51.0 size=     256KiB time=00:00:04.33 bitrate= 484.0kbits/s speed=0.0153x elapsed=0:04:42.67    \nframe=  263 fps=0.9 q=51.0 size=     256KiB time=00:00:04.35 bitrate= 482.2kbits/s speed=0.0154x elapsed=0:04:43.21    \nframe=  263 fps=0.9 q=51.0 size=     256KiB time=00:00:04.35 bitrate= 482.2kbits/s speed=0.0153x elapsed=0:04:43.77    \nframe=  263 fps=0.9 q=51.0 size=     256KiB time=00:00:04.35 bitrate= 482.2kbits/s speed=0.0153x elapsed=0:04:44.29    \nframe=  263 fps=0.9 q=51.0 size=     256KiB time=00:00:04.35 bitrate= 482.2kbits/s speed=0.0153x elapsed=0:04:44.82    \nframe=  263 fps=0.9 q=51.0 size=     256KiB time=00:00:04.35 bitrate= 482.2kbits/s speed=0.0152x elapsed=0:04:45.37    \nframe=  264 fps=0.9 q=51.0 size=     256KiB time=00:00:04.36 bitrate= 480.3kbits/s speed=0.0153x elapsed=0:04:45.92    \nframe=  265 fps=0.9 q=42.8 size=     256KiB time=00:00:04.38 bitrate= 478.5kbits/s speed=0.0153x elapsed=0:04:46.44    \nframe=  266 fps=0.9 q=48.0 size=     256KiB time=00:00:04.40 bitrate= 476.7kbits/s speed=0.0153x elapsed=0:04:47.00    \nframe=  266 fps=0.9 q=48.0 size=     256KiB time=00:00:04.40 bitrate= 476.7kbits/s speed=0.0153x elapsed=0:04:47.53    \nframe=  268 fps=0.9 q=44.0 size=     256KiB time=00:00:04.43 bitrate= 473.1kbits/s speed=0.0154x elapsed=0:04:48.05    \nframe=  268 fps=0.9 q=44.0 size=     256KiB time=00:00:04.43 bitrate= 473.1kbits/s speed=0.0154x elapsed=0:04:48.58    \nframe=  268 fps=0.9 q=44.0 size=     256KiB time=00:00:04.43 bitrate= 473.1kbits/s speed=0.0153x elapsed=0:04:49.09    \nframe=  269 fps=0.9 q=49.0 size=     256KiB time=00:00:04.45 bitrate= 471.3kbits/s speed=0.0154x elapsed=0:04:49.63    \nframe=  270 fps=0.9 q=50.0 size=     256KiB time=00:00:04.46 bitrate= 469.6kbits/s speed=0.0154x elapsed=0:04:50.15    \nframe=  271 fps=0.9 q=45.4 size=     256KiB time=00:00:04.48 bitrate= 467.8kbits/s speed=0.0154x elapsed=0:04:50.69    \nframe=  271 fps=0.9 q=45.4 size=     256KiB time=00:00:04.48 bitrate= 467.8kbits/s speed=0.0154x elapsed=0:04:51.22    \nframe=  272 fps=0.9 q=50.0 size=     256KiB time=00:00:04.50 bitrate= 466.1kbits/s speed=0.0154x elapsed=0:04:51.73    \nframe=  272 fps=0.9 q=50.0 size=     256KiB time=00:00:04.50 bitrate= 466.1kbits/s speed=0.0154x elapsed=0:04:52.25    \nframe=  272 fps=0.9 q=50.0 size=     256KiB time=00:00:04.50 bitrate= 466.1kbits/s speed=0.0154x elapsed=0:04:52.78    \nframe=  273 fps=0.9 q=50.0 size=     256KiB time=00:00:04.51 bitrate= 464.4kbits/s speed=0.0154x elapsed=0:04:53.29    \nframe=  274 fps=0.9 q=41.0 size=     256KiB time=00:00:04.53 bitrate= 462.7kbits/s speed=0.0154x elapsed=0:04:53.83    \nframe=  276 fps=0.9 q=49.0 size=     256KiB time=00:00:04.56 bitrate= 459.3kbits/s speed=0.0155x elapsed=0:04:54.38    \nframe=  277 fps=0.9 q=45.7 size=     256KiB time=00:00:04.58 bitrate= 457.6kbits/s speed=0.0155x elapsed=0:04:54.94    \nframe=  277 fps=0.9 q=45.7 size=     256KiB time=00:00:04.58 bitrate= 457.6kbits/s speed=0.0155x elapsed=0:04:55.48    \nframe=  277 fps=0.9 q=45.7 size=     256KiB time=00:00:04.58 bitrate= 457.6kbits/s speed=0.0155x elapsed=0:04:56.01    \nframe=  278 fps=0.9 q=49.0 size=     256KiB time=00:00:04.60 bitrate= 456.0kbits/s speed=0.0155x elapsed=0:04:56.56    \nframe=  279 fps=0.9 q=49.0 size=     256KiB time=00:00:04.61 bitrate= 454.3kbits/s speed=0.0155x elapsed=0:04:57.10    \nframe=  279 fps=0.9 q=49.0 size=     256KiB time=00:00:04.61 bitrate= 454.3kbits/s speed=0.0155x elapsed=0:04:57.62    \nframe=  280 fps=0.9 q=41.2 size=     256KiB time=00:00:04.63 bitrate= 452.7kbits/s speed=0.0155x elapsed=0:04:58.16    \nframe=  281 fps=0.9 q=48.0 size=     256KiB time=00:00:04.65 bitrate= 451.1kbits/s speed=0.0156x elapsed=0:04:58.70    \nframe=  281 fps=0.9 q=48.0 size=     256KiB time=00:00:04.65 bitrate= 451.1kbits/s speed=0.0155x elapsed=0:04:59.24    \nframe=  282 fps=0.9 q=49.0 size=     256KiB time=00:00:04.66 bitrate= 449.5kbits/s speed=0.0156x elapsed=0:04:59.76    \nframe=  282 fps=0.9 q=49.0 size=     256KiB time=00:00:04.66 bitrate= 449.5kbits/s speed=0.0155x elapsed=0:05:00.30    \nframe=  283 fps=0.9 q=49.0 size=     256KiB time=00:00:04.68 bitrate= 447.9kbits/s speed=0.0156x elapsed=0:05:00.82    \nframe=  284 fps=0.9 q=48.0 size=     256KiB time=00:00:04.70 bitrate= 446.3kbits/s speed=0.0156x elapsed=0:05:01.35    \nframe=  285 fps=0.9 q=43.1 size=     256KiB time=00:00:04.71 bitrate= 444.7kbits/s speed=0.0156x elapsed=0:05:01.89    \nframe=  285 fps=0.9 q=43.1 size=     256KiB time=00:00:04.71 bitrate= 444.7kbits/s speed=0.0156x elapsed=0:05:02.44    \nframe=  286 fps=0.9 q=46.8 size=     256KiB time=00:00:04.73 bitrate= 443.1kbits/s speed=0.0156x elapsed=0:05:02.99    \nframe=  287 fps=0.9 q=48.0 size=     256KiB time=00:00:04.75 bitrate= 441.6kbits/s speed=0.0156x elapsed=0:05:03.51    \nframe=  287 fps=0.9 q=48.0 size=     256KiB time=00:00:04.75 bitrate= 441.6kbits/s speed=0.0156x elapsed=0:05:04.05    \nframe=  287 fps=0.9 q=48.0 size=     256KiB time=00:00:04.75 bitrate= 441.6kbits/s speed=0.0156x elapsed=0:05:04.58    \nframe=  287 fps=0.9 q=48.0 size=     256KiB time=00:00:04.75 bitrate= 441.6kbits/s speed=0.0156x elapsed=0:05:05.11    \nframe=  287 fps=0.9 q=48.0 size=     256KiB time=00:00:04.75 bitrate= 441.6kbits/s speed=0.0155x elapsed=0:05:05.65    \nframe=  287 fps=0.9 q=48.0 size=     256KiB time=00:00:04.75 bitrate= 441.6kbits/s speed=0.0155x elapsed=0:05:06.18    \nframe=  289 fps=0.9 q=48.0 size=     256KiB time=00:00:04.78 bitrate= 438.5kbits/s speed=0.0156x elapsed=0:05:06.72    \nframe=  289 fps=0.9 q=48.0 size=     256KiB time=00:00:04.78 bitrate= 438.5kbits/s speed=0.0156x elapsed=0:05:07.23    \nframe=  291 fps=0.9 q=46.8 size=     512KiB time=00:00:04.81 bitrate= 870.9kbits/s speed=0.0156x elapsed=0:05:07.77    \nframe=  291 fps=0.9 q=46.8 size=     512KiB time=00:00:04.81 bitrate= 870.9kbits/s speed=0.0156x elapsed=0:05:08.31    \nframe=  291 fps=0.9 q=46.8 size=     512KiB time=00:00:04.81 bitrate= 870.9kbits/s speed=0.0156x elapsed=0:05:08.85    \nframe=  291 fps=0.9 q=46.8 size=     512KiB time=00:00:04.81 bitrate= 870.9kbits/s speed=0.0156x elapsed=0:05:09.38    \nframe=  293 fps=0.9 q=48.0 size=     512KiB time=00:00:04.85 bitrate= 864.9kbits/s speed=0.0157x elapsed=0:05:09.89    \nframe=  293 fps=0.9 q=48.0 size=     512KiB time=00:00:04.85 bitrate= 864.9kbits/s speed=0.0156x elapsed=0:05:10.42    \nframe=  294 fps=0.9 q=48.0 size=     512KiB time=00:00:04.86 bitrate= 861.9kbits/s speed=0.0157x elapsed=0:05:10.94    \nframe=  295 fps=0.9 q=44.7 size=     512KiB time=00:00:04.88 bitrate= 859.0kbits/s speed=0.0157x elapsed=0:05:11.45    \nframe=  296 fps=0.9 q=47.0 size=     512KiB time=00:00:04.90 bitrate= 856.1kbits/s speed=0.0157x elapsed=0:05:11.99    \nframe=  298 fps=1.0 q=40.0 size=     512KiB time=00:00:04.93 bitrate= 850.3kbits/s speed=0.0158x elapsed=0:05:12.54    \nframe=  299 fps=1.0 q=39.5 size=     512KiB time=00:00:04.95 bitrate= 847.4kbits/s speed=0.0158x elapsed=0:05:13.06    \n[mp4 @ 0000019a7c75cfc0] Starting second pass: moving the moov atom to the beginning of the file\n[out#0/mp4 @ 0000019a7c74ac00] video:520KiB audio:0KiB subtitle:0KiB other streams:0KiB global headers:2KiB muxing overhead: 1.314967%\nframe=  300 fps=1.0 q=44.0 Lsize=     527KiB time=00:00:04.96 bitrate= 869.0kbits/s speed=0.0159x elapsed=0:05:13.18    \nx265 [info]: frame I:      2, Avg QP:49.21  kb/s: 16372.08\nx265 [info]: frame P:     71, Avg QP:42.85  kb/s: 1984.64 \nx265 [info]: frame B:    227, Avg QP:44.95  kb/s: 358.43  \nx265 [info]: Weighted P-Frames: Y:5.6% UV:2.8%\n\nencoded 300 frames in 312.76s (0.96 fps), 850.06 kb/s, Avg QP:44.48\n",
  "seconds": 313.71740341186523,
  "probe_out": {}
}